<?xml version="1.0" standalone="yes"?>
<svg xmlns="http://www.w3.org/2000/svg" width="1306" height="1972">
<path style="fill:#bebebe; stroke:none;" d="M0 0L0 1972L1306 1972L1306 0L0 0z"/>
<path style="fill:#28272b; stroke:none;" d="M640 8.45959C617.762 11.8353 595.681 19.3923 574 25.1548C566.877 27.0481 554.397 25.0953 548.423 29.2849C544.943 31.7252 546.823 37.8654 548.287 40.9861C552.705 50.4058 562.914 51.2843 571.999 50.9719C594.004 50.2152 618.49 36.972 640 31.7424C647.525 29.9131 658.385 33.3855 664.881 29.3203C672.786 24.3739 673.996 15.3173 664.996 10.757C658.322 7.37561 647.263 7.35718 640 8.45959M347 62C344.462 75.7219 340.731 101.472 332.054 112.622C326.193 120.155 310.581 122.57 307.648 132.031C303.973 143.888 316.336 144.99 318.931 154.115C320.889 160.999 313.566 179.335 310.707 185.941C303.906 201.658 298.723 220.944 296.698 238C295.817 245.425 294.554 252.948 300.933 258.243C307.057 263.327 311.562 257.881 313.429 251.695C317.296 238.881 317.673 223.349 320.546 210C323.939 194.237 330.143 179.401 334.394 164C336.956 154.719 337.778 144.891 343.945 137.085C360.213 116.494 402.22 111.63 426 105.99C434.84 103.893 446.93 98.4535 455.996 99.4656C467.594 100.76 457.779 122.391 456.492 130C452.098 155.966 447.96 184.641 451.578 211C452.958 221.056 452.725 236.717 466.996 236.495C475.789 236.358 479.862 219.298 477.162 212.492C467.264 187.55 472.212 153.108 480.301 127.174C485.771 109.638 494.358 93.2454 493.09 75C492.194 62.1178 503.521 43.1997 491.439 33.3619C487.422 30.0912 477.899 25.0535 474.15 31.2161C466.974 43.0104 475.227 61.189 465.117 72.7025C460.396 78.0782 446.827 78.6382 440 80.106C423.183 83.7213 406.412 87.2142 390 92.5098C382.396 94.963 370.064 101.038 362.14 100.388C355.096 99.8099 358.934 88.9893 359.864 85C363.052 71.3345 362.702 62.8224 347 62M662 160C663.182 153.329 668.924 146.683 663.479 140.267C654.545 129.74 644.541 139.351 634 141.082C609.003 145.187 578.901 157.423 554 152C555.35 144.211 553.384 134.279 558.035 127.228C560.944 122.817 566.405 122.002 571 120.318C581.562 116.446 592.849 109.864 604 108.217C613.112 106.871 645.113 104.222 644.595 90.0596C644.409 84.9668 636.138 81.7848 632 81.2278C618.359 79.3915 604.953 83.6465 592 87.0815C588.958 87.8882 580.437 91.1687 577.974 88.2225C571.912 80.9719 592.518 74.0057 580.899 65.5565C556.25 47.6332 551.702 85.0393 540.93 98.4417C535.297 105.45 520.082 101.988 516.721 108.518C511.173 119.293 525.834 124.629 529.85 131.314C532.558 135.821 531.106 143.715 532.125 148.885C534.328 160.062 542.963 172.325 554.224 175.707C567.8 179.785 582.775 174.563 596 171.625C617.938 166.753 639.318 160 662 160M427 681C427.005 716.36 464.519 712 490 712C539.778 712 605.037 709.69 626 767C605.846 768.067 585.328 779.201 566 784.695C521.706 797.285 476.83 809.51 433 823.732C418.886 828.311 406.348 836.95 392 840.874C374.521 845.655 369.412 830.548 357.568 821.552C352.703 817.858 343.266 812.685 337.153 816.15C331.229 819.508 329.644 830.983 327.243 836.885C319.916 854.9 314.491 870.566 303.065 886.675C292.861 901.063 269.599 913.12 254.889 922.843C250.37 925.83 243.712 927.687 240.122 931.844C231.484 941.845 249.664 951.234 257 951.793C262.567 952.218 268.384 951.843 274 952C271.833 961.889 287.033 974.289 277 980C286.542 1014.26 321.658 994.023 343 987.115C357.24 982.505 369.793 981.115 382.003 971.491C447.793 919.638 528.526 883.132 606.695 854.687C626.197 847.591 645.084 839.386 665 833.378C669.793 831.932 680.265 825.975 684.912 826.998C689.197 827.94 691.997 833.329 694.657 836.385C704.693 847.912 708.823 859.613 714 874C699.646 876.411 689.391 893.568 678.951 902.698C670.283 910.277 660.16 915.74 651.432 923.361C644.677 929.26 640.625 936.59 634.464 942.794C622.447 954.895 607.293 964.927 594 975.591C544.914 1014.97 493.607 1051.55 445.01 1091.32C421.564 1110.51 402.587 1136.33 375.999 1151.71C365.72 1157.66 352.24 1155.06 341 1157.48C324.733 1160.98 309.217 1168.89 294.999 1177.24C281.496 1185.17 275.354 1195.33 265.996 1207.02C261.434 1212.72 255.301 1218.77 258.357 1226.68C261.976 1236.06 273.351 1239.39 280 1246C264.495 1246.44 244.466 1256.58 229.2 1251.4C216.854 1247.21 204.649 1228.31 196.094 1219.03C183.193 1205.03 165.78 1194.36 151 1182.45C138.225 1172.16 127.182 1158.36 113.941 1148.98C109.868 1146.1 101.265 1144.19 96.521 1146.72C90.9409 1149.69 96.1878 1157.85 98.3412 1161.2C105.628 1172.52 114.767 1180.79 123.362 1190.97C136.051 1206 153.297 1215.67 167.885 1228.63C179.898 1239.3 191.976 1249.93 202.937 1261.72C207.989 1267.16 210.732 1274.61 218.027 1277.71C224.846 1280.6 234.72 1279.12 242 1278.99C278.765 1278.34 316.374 1268.3 353 1264.21C389.607 1260.11 426.459 1259.76 463 1255.79C509.71 1250.73 556.061 1242.57 603 1238.2C661.448 1232.75 720.244 1232.47 779 1232C807.448 1231.77 835.473 1229.69 864 1231.06C915.857 1233.55 967.291 1240.28 1019 1243.89C1046.01 1245.77 1079.55 1240.06 1101.83 1223.67C1112.33 1215.95 1118.88 1203.43 1129.18 1196.2C1144.21 1185.64 1163.79 1180.28 1178.19 1170.05C1191.11 1160.87 1209.02 1156.73 1220.62 1145.58C1225.39 1140.99 1227.56 1130.01 1221.65 1125.39C1205.84 1113.07 1187.19 1124.44 1172 1132.03C1150.18 1142.94 1126.49 1154.01 1107.03 1168.75C1093.62 1178.91 1084.28 1194.55 1068.8 1202.03C1033.52 1219.09 1000.45 1214.35 963 1211.13C940.378 1209.18 917.641 1208.98 895 1207C901.461 1202.59 906.876 1200.88 911.563 1194.19C915.578 1188.47 916.488 1182.81 917.422 1176C918.413 1168.78 919.907 1156.92 917.283 1150C914.646 1143.05 906.144 1138.03 901 1132.99C880.561 1112.96 852.96 1102.71 832.722 1082.43C821.537 1071.23 796.06 1044.86 813.215 1027.2C823.203 1016.92 843.807 1014.69 857 1010.84C889.885 1001.22 922.083 987.012 957 987C965.748 986.997 974.497 987.722 983 989.948C988.443 991.373 995.223 995.308 1000.94 994.02C1019.63 989.809 1033.2 977.145 1050.14 970.106C1059.45 966.238 1071.3 968.564 1081 966.209C1104.42 960.522 1125.67 950.63 1145.43 936.737C1177.43 914.244 1202.3 879.581 1219.36 845.224C1251.54 780.464 1265.21 711.499 1242.92 641C1237.08 622.512 1224.3 603.305 1213.97 586.885C1187.34 544.563 1134.24 515.512 1083.06 527.224C1064.14 531.552 1052.42 542.509 1036.69 552.669C1022.61 561.757 1006.77 571.735 995.014 584.115C970.204 610.237 960.038 646.096 950.882 680C946.125 697.615 941 714.332 941 733C932.777 731.298 926.402 718.865 922.327 712.114C914.46 699.077 902.724 687.695 892 677.001C878.9 663.937 863.777 651.717 847 643.649C841.647 641.075 826.088 638.784 824.042 632.812C822.153 627.3 827.257 621.08 828.687 615.999C833.606 598.517 839.345 580.715 846.502 564C856.943 539.613 870.126 516.549 880.159 491.941C886.026 477.549 888.157 459.785 897.589 447.027C903.817 438.603 914.806 433.853 921.882 425.71C932.729 413.227 941.232 395.717 948.582 381C952.006 374.144 957.677 369.185 957.818 361C958.379 328.571 916.793 326.726 900.08 308.227C896.521 304.287 896.963 297.833 895.313 293C890.039 277.546 880.471 246.239 861.803 242.326C847.559 239.34 846.842 255.833 845.245 266C842.517 283.373 836.571 299.885 832.659 317C830.635 325.853 829.9 338.837 825.161 346.594C822.674 350.665 817.079 350.049 813 351.118C802.325 353.916 768.98 355.091 765.423 368.125C760.329 386.796 793.654 401.979 794.707 420.001C795.576 434.874 787 451.602 783.767 466C774.804 505.906 765.714 548.561 749.062 586C744.576 596.086 740.284 606.415 737.22 616.999C736.136 620.744 734.399 629.373 731.392 631.911C726.069 636.404 695.893 643.286 691.008 637.479C685.434 630.853 683.557 609.917 681.179 601C671.809 565.87 679.854 525.978 644 504.902C610.974 485.489 580.727 493.059 547.99 506.399C515.925 519.465 488.037 535.754 459.973 556.184C443.539 568.147 428.065 577.877 414.137 592.885C399.422 608.741 374.74 630.467 372.283 653C369.552 678.045 410.276 679.541 427 681z"/>
<path style="fill:#bebebe; stroke:none;" d="M868 292C864.4 311.206 858.355 330.008 853.919 349C852.19 356.4 854.565 364.817 848.342 370.588C841.586 376.852 818.326 375.814 809 377.496C805.049 378.208 797.413 380.052 795.814 384.333C794.546 387.729 798.732 392.433 800.489 395.003C804.679 401.131 821.158 416.069 820.325 423.01C817.925 443.019 810.566 464.702 805.083 484.059C800.402 500.588 798.409 517.518 793.57 534C784.029 566.495 770.336 597.832 760 630L794 629C800.879 581.673 826.578 538.42 846.295 495.804C855.941 474.954 860.473 450.938 871.618 431C877.907 419.749 892.275 412.669 901.357 403.695C908.326 396.808 911.812 385.523 916.279 377C918.421 372.912 924.775 367.78 924.992 363.116C925.136 360.019 921.464 357.848 918.803 357.38C910.089 355.848 904.227 359.66 897.087 351.471C893.897 347.812 892.967 342.788 889.815 339.142C885.681 334.361 880.161 332.151 877.342 326C873.109 316.761 872.202 302.121 870 292L868 292M552 532L552 536C580.94 536.455 591.919 566.227 583.294 590.695C571.858 623.138 538.901 641.173 506.059 629.455C495.856 625.814 487.261 619.945 482.401 609.917C477.283 599.355 478 589.502 478 578C466.85 578 462.589 584.928 455 591C449.618 595.306 442.867 597.133 438 602C434.431 605.569 432.26 614.444 428 617C424.536 619.078 420.847 613.611 421 613C406.504 614.514 397.525 640.141 391 651C414.787 657.472 443.771 651.102 468 649.941C474.631 649.623 482.45 647.304 489 648.833C494.281 650.065 507.766 662.048 502.982 668.184C496.096 677.017 482.479 681.077 472 683C487.124 690.464 508.845 680.543 525 681.256C530.659 681.505 538.068 681.82 542.959 684.942C547.311 687.72 548.854 692.231 554.015 694.007C564.764 697.707 576.354 698.156 587 702.351C601.856 708.205 614.318 720.344 625.305 731.547C633.112 739.507 642.221 748.313 643 760C660.933 759.99 684.304 752.639 700.999 745.973C709.042 742.761 719.471 736.699 726.108 746.657C731.62 754.925 715.163 762.086 709.973 764.226C687.343 773.558 661.695 778.338 638 784.318C575.829 800.006 514.045 820.631 453 840.207C432 846.941 405.793 867.578 383 865.713C371.135 864.743 361.586 851.718 351 847C348.787 861.415 338.574 881.854 330.506 893.973C325.754 901.111 317.569 908.889 315 917C322.524 917.004 339.039 917.736 340.318 928.001C340.856 932.323 336.248 935.498 336.188 939.941C336.063 949.063 339.156 952.341 336 962C352.855 959.918 365.051 945.985 378.027 936.568C398.225 921.911 420.516 910.551 442 897.891C521.474 851.061 612.179 819.673 699 789.711C718.085 783.125 737.736 776.043 756 767.467C766.414 762.577 780.067 753.738 792 754.216C800.504 754.557 820.495 767.81 809.783 777.064C802.583 783.284 791.529 784.934 783 788.837C760.331 799.212 730.916 815.327 706 818C707.608 825.7 717.061 831.324 721.552 837.692C726.817 845.157 727.806 855.294 733.587 862.235C737.605 867.061 747.992 873.183 746.835 880.118C744.484 894.218 726.473 902.669 716.227 909.996C708.777 915.325 702.97 924.854 695.453 930.93C688.207 936.787 678.961 939.314 672.312 946.169C623.734 996.254 565.419 1035.07 511.027 1078.32C479.952 1103.02 451.563 1129.45 422.347 1155.88C412.855 1164.47 401.127 1174.63 388.804 1178.6C377.773 1182.16 366.205 1180.65 355 1182.26C344.893 1183.71 332.063 1189.53 323.207 1194.55C315.832 1198.74 294.393 1210.96 294.797 1220.97C295.143 1229.54 325.047 1227.67 331 1227.94C368.458 1229.61 410.437 1217.32 444 1201.37C455.963 1195.69 459.833 1186.01 468.003 1176.31C483.276 1158.17 498.843 1139.3 512.811 1120.25C516.962 1114.58 518.694 1107.04 522.938 1101.82C534.938 1087.08 552.157 1077.99 566.524 1065.96C584.014 1051.3 600.317 1033.86 621.028 1023.3C643.412 1011.87 661.798 999.242 682 984.167C688.681 979.182 702.087 972.205 705.588 964.363C708.136 958.653 700.507 955.059 702.365 950.091C703.982 945.765 712.111 944.594 716 943.332C726.573 939.902 752.468 929.239 749 951C765.833 950.159 784.707 929.655 799.027 921.599C822.569 908.356 854.773 897.93 881 891.513C896.01 887.841 921.976 874.265 928.86 896.99C930.815 903.44 925.268 906.928 919.989 908.646C906.409 913.069 892.45 915.636 879 920.675C858.041 928.527 836.139 934.148 816.031 944.349C802.137 951.397 789.882 962.503 775.882 969.444C757.562 978.527 734.582 984.672 719.961 999.745C715.878 1003.96 710.556 1011.07 707.647 1016.14C704.715 1021.25 705.692 1027.44 705.941 1033C707.209 1061.24 735.244 1073.36 756 1088.14C772.508 1099.9 787.685 1112.63 805 1123.47C814.284 1129.29 833.874 1125.7 838.161 1138.03C839.741 1142.57 838.244 1150.97 833.785 1153.59C829.086 1156.35 822.203 1154.66 817 1155.32C805.779 1156.74 799.633 1159.52 790.748 1166.08C785.641 1169.86 774.277 1180.54 780.15 1188.11C784.093 1193.19 796.405 1191 802 1191C821.886 1191 841.182 1189.56 861 1189C863.071 1173.23 868.338 1177.8 881 1178C882.358 1173.78 885.953 1170.66 885.885 1166C885.757 1157.17 878.663 1148.89 873.239 1142.69C858.29 1125.62 839.981 1116.85 822.432 1103.32C801.672 1087.32 786.813 1063.65 779.177 1039C769.085 1006.41 805.82 998.047 828 990.753C860.152 980.179 894.089 966.321 928 963.196C952.366 960.951 974.928 965.671 999 966C999.971 956.605 1009.22 955.347 1017 953.302C1032.82 949.145 1051.49 948.313 1066.57 943.148C1118.89 925.218 1164.04 892.301 1192.01 843C1227.25 780.904 1246.47 712.231 1223.33 642.01C1220.27 632.718 1213.73 625.197 1208.81 616.973C1201.38 604.53 1196.01 590.481 1185.54 580.063C1162.24 556.882 1120.82 546.873 1089 555.028C1061.67 562.032 1030.62 587.515 1011.03 607.365C996.626 621.954 988.939 643.864 982.965 663C972.515 696.476 964.997 725.788 965 761C965.002 782.45 968.545 810.419 989.001 822.784C995.999 827.014 1004.53 824.415 1012 823.331C1030.51 820.645 1049.95 819.054 1068 814C1063.25 808.095 1053.36 812.058 1047 812.997C1034.27 814.875 1023.6 816.128 1013 806.844C976.451 774.837 982.532 719.691 1006.05 681.668C1014.26 668.392 1027.65 651.743 1043 646.852C1085.79 633.223 1147.5 642.453 1174.32 682C1187.21 700.998 1188.57 729.917 1184.72 751.973C1180.88 773.918 1165.69 803.14 1150.38 819.262C1139.8 830.415 1126.41 838.502 1115.09 848.81C1098.39 864.01 1086.92 886.902 1067.8 898.785C1052.1 908.547 1016.12 910.361 998 908.481C989.453 907.594 980.839 903.961 973 900.615C965.677 897.489 960.594 892.541 955 887.003C947.854 879.927 939.604 872.348 935.855 862.692C924.319 832.976 936.566 801.034 929.495 771.305C923.808 747.394 903.405 724.57 887.875 706.109C856.48 668.788 812.109 656.078 765 661.138C739.927 663.832 711.231 677.849 687.06 665.812C666.698 655.672 666.24 635.355 662.026 616C658.642 600.462 654.321 584.817 652.315 569C650.686 556.151 653.228 541.818 642.438 531.999C627.331 518.25 599.578 517.649 581 522.615C571.202 525.234 562.206 530.95 552 532M552 559.453C545.299 560.261 537.909 564.585 531.804 564.911C523.246 565.369 519.67 557.594 511.07 564.796C503.311 571.294 490.716 595.234 501.353 603.971C507.542 609.054 521.495 607.747 529 606.773C543.529 604.888 555.304 595.211 560.976 582.001C565.519 571.421 569.083 557.395 552 559.453z"/>
<path style="fill:#28272b; stroke:none;" d="M526.101 575.649C515.152 579.256 529.451 598.068 536.711 596.487C548.282 593.965 540.618 570.866 526.101 575.649z"/>
<path style="fill:#bebebe; stroke:none;" d="M1109 671C1114.34 677.536 1122.34 681.26 1127.63 688.001C1142.51 706.966 1147.12 731.52 1137.18 754C1131.04 767.893 1121.97 780.846 1114.42 793.997C1111.4 799.257 1105.32 805.725 1106 812C1130.67 796.579 1149.96 776.109 1159.67 747C1172.52 708.455 1151.86 671 1109 671M1086 694C1089.72 700.078 1098.09 701.233 1102.93 706.574C1109.65 713.988 1110.28 723.944 1113 733C1127.33 724.045 1115 702.711 1104 696.333C1099.35 693.638 1091.31 694 1086 694M1046 716C1043.6 723.702 1044.6 741.421 1056.06 741.784C1059.97 741.908 1073.18 737.851 1069.56 731.631C1067.26 727.686 1057.97 728.542 1054.19 725.329C1050.74 722.4 1050.32 717.773 1046 716M1015 724C1013.04 739.031 1005.12 761.774 1015.2 775.757C1022.1 785.329 1040.35 781.483 1050 780.302C1053.53 779.871 1059.24 780.161 1061.26 776.469C1063.68 772.059 1051.98 769.877 1049.43 768.982C1027.91 761.413 1032.21 733.113 1015 724M955 818C955 828.948 953.761 842.382 956.494 853C957.848 858.259 962.373 861.834 964 867L967 866C976.46 886.408 1005.56 879.634 1023 878.125C1029.9 877.528 1037.2 877.551 1043.8 875.087C1049.05 873.13 1054.33 869.182 1057.89 864.937C1060.59 861.716 1072.12 851.247 1071.65 847.009C1071.27 843.535 1048.08 847.854 1044 848.305C1024.86 850.424 1007.38 858.179 989.027 848.064C981.114 843.703 973.129 836.725 967.208 829.941C963.088 825.22 961.731 819.263 955 818M671 1022C659.635 1034.05 641.749 1038.22 628.318 1047.31C612.922 1057.73 599.31 1071.66 585.426 1083.94C574.738 1093.39 561.459 1101.32 551.375 1111.32C544.085 1118.55 540.421 1130.28 534.657 1138.79C523.674 1155.01 508.089 1169.66 495.853 1185.32C490.228 1192.51 487.5 1201.79 481.097 1208.31C472.068 1217.5 458.754 1221.3 448 1228C455.171 1230.55 463.731 1225.86 471 1225.11C492.386 1222.92 513.631 1219.21 535 1217.09C586.931 1211.92 638.912 1207.56 691 1205.06C712.324 1204.04 734.954 1207.82 756 1204C753.999 1195.89 748.013 1187.06 747.248 1178.94C744.702 1151.91 771.702 1147.55 784 1131C771.53 1127.41 761.062 1114.31 751.115 1106.47C732.208 1091.56 706.567 1080.78 691.381 1061.55C687.689 1056.87 680.8 1050.38 678.784 1044.88C675.71 1036.5 681.578 1026.05 671 1022z"/>
<path style="fill:#28272b; stroke:none;" d="M938 1258.43C916.891 1260.98 892.002 1260.86 872.01 1269.01C863.285 1272.56 857.002 1281.36 849.937 1287.26C836.438 1298.55 817.93 1308.33 808.876 1324.06C799.361 1340.59 787.581 1366.79 787.027 1386C786.734 1396.17 789.848 1403.84 792.461 1413.21C794.566 1420.75 793.625 1429.12 797.205 1436.43C816.841 1476.55 867.613 1497.85 911 1492.69C923.064 1491.26 934.019 1485.65 945.186 1481.19C982.464 1466.33 1025.55 1441.74 1039 1401C1047.02 1376.71 1050.13 1343.66 1042.06 1319C1027.85 1275.54 981.674 1253.15 938 1258.43M378 1271.44C363.157 1273.37 348.768 1279.39 334.027 1281.27C327.321 1282.12 322.763 1274.48 315 1275.13C298.406 1276.5 276.002 1298.41 266.903 1311.36C235.181 1356.52 241.404 1426 290.001 1458.06C310.177 1471.38 337.684 1473.53 361 1470.81C404.78 1465.71 455 1430.58 463.726 1385C472.182 1340.83 456.474 1299.91 415 1280.15C403.428 1274.63 391.056 1269.74 378 1271.44z"/>
<path style="fill:#bebebe; stroke:none;" d="M899 1290C900.483 1294.71 902.886 1297.85 903 1303L907 1303L907 1305C894.666 1305.81 879.09 1304.61 869.174 1313.45C862.377 1319.51 853.473 1330.23 850.643 1339C849.233 1343.37 849.087 1353.36 843.713 1355.14C839.362 1356.57 832.501 1351.74 828 1351C827.692 1358.25 822.912 1366.81 820.96 1374C816.479 1390.52 814.626 1415.88 821.719 1432C832.142 1455.69 861.481 1463 885 1463C934.553 1463 1000.42 1424.1 1014.11 1375C1024.19 1338.86 1019.84 1294.2 976 1285.43C951.29 1280.49 923.853 1290 899 1290M393 1298L396 1299C381.204 1303.03 364.91 1302.24 350.038 1306.91C344.281 1308.72 343.756 1315.7 337.962 1316.78C320.204 1320.11 306.474 1307.99 293.338 1323.11C263.71 1357.23 264.508 1422.16 311.027 1441.33C326.238 1447.6 347.475 1443.65 363 1440.51C390.341 1434.98 430.203 1403.48 438.1 1375.89C446.518 1346.47 438.728 1323.23 412.754 1307.09C406.651 1303.29 400.32 1298.27 393 1298z"/>
<path style="fill:#28272b; stroke:none;" d="M920.015 1344.65C901.282 1350.39 908.391 1390.94 927.973 1385.04C936.766 1382.39 938.781 1371.26 946.003 1366.26C948.698 1364.4 953.568 1362.89 953.568 1358.94C953.568 1346.21 929.044 1341.88 920.015 1344.65M341 1348.61C312.357 1352.46 319.949 1393.45 346 1390.61C372.649 1387.72 367.832 1345 341 1348.61M603 1717C596.727 1716.79 590.401 1713.81 584.115 1715.49C573.472 1718.34 562.34 1729.66 553 1735.55C527.303 1751.78 501.905 1768.6 476.03 1784.3C465.965 1790.4 458.998 1802.04 446 1803C447.072 1790.71 447.088 1778.25 448.568 1766C450.042 1753.8 454.79 1734.57 450.357 1723C448.298 1717.63 440.24 1708.45 433.772 1713.74C427.231 1719.09 426.221 1733.27 425.137 1741C421.633 1765.98 424.998 1791.23 421.844 1815.99C420.637 1825.46 405.926 1826.7 405.738 1835.81C405.563 1844.3 417.391 1842.49 420.715 1847.41C428.003 1858.19 418.523 1878.65 423.325 1890.99C425.75 1897.22 438.581 1901.78 444.479 1897.71C448.588 1894.88 447 1886.27 447 1882C447 1869.51 443.02 1851.82 446.771 1840C451.458 1825.23 468.695 1826.26 476 1815C484.474 1819.17 485.728 1830.67 488.502 1839C492.686 1851.57 500.92 1863.22 506.977 1874.99C518.021 1896.44 542.537 1916.1 567 1917.88C574.148 1918.41 580.087 1913.7 586.164 1913.91C592.99 1914.15 598.404 1920.1 605.94 1918.31C615.198 1916.11 619.897 1895.14 622.801 1887C628.187 1871.91 634.897 1856.83 640.967 1842C643.38 1836.1 644.209 1828.93 649.52 1824.68C655.336 1820.02 665.95 1819.99 673 1818.37C677.938 1817.24 684.7 1813.44 689.811 1814.54C695.956 1815.85 694.825 1833.02 694.973 1838C695.507 1856 695.913 1873.39 699.779 1891C702.497 1903.37 709.246 1912.99 723.653 1908.46C728.714 1906.86 728.31 1901.26 727.368 1897C723.971 1881.62 722.34 1867.69 720.432 1852C714.744 1805.2 723.11 1755.55 728.305 1709C729.838 1695.26 735.659 1666.83 718.885 1659.79C689.789 1647.57 677.924 1691.71 669.888 1711.57C660.944 1733.66 652.11 1756.19 642.315 1777.89C637.5 1788.55 628.679 1800.31 625.54 1811.31C618.883 1834.62 611.415 1857.38 601.196 1880C598.041 1886.98 595.572 1898.26 589.675 1903.35C582.841 1909.25 567.8 1902.11 561.003 1898.5C548.247 1891.71 537.521 1877.78 530.563 1865.43C521.738 1849.77 515.663 1834.63 509.111 1818C506.766 1812.05 502.12 1803.18 506.118 1797.09C510.821 1789.92 521.984 1785.25 528.944 1780.44C545.563 1768.94 561.363 1755.86 579 1745.88C591.64 1738.72 607.697 1733.13 603 1717M288 1692C293.161 1690.39 299.204 1686.86 303 1683L290 1684L291 1682C277.692 1683.16 265.908 1682.72 254.059 1689.87C225.077 1707.34 210.497 1744.54 235.975 1771.9C245.399 1782.03 259.484 1786.26 272 1791C281.688 1794.67 318.301 1800.52 311.814 1815.57C305.504 1830.21 292.028 1841.96 281 1853C259.022 1875 236.086 1896.01 211.032 1914.3C203.13 1920.07 176.327 1936.35 185.41 1948.68C197.408 1964.96 221.172 1934.29 231 1926.68C257.13 1906.45 282.074 1885.78 305.304 1862.14C318.433 1848.78 330.771 1834.42 336.245 1816C340.565 1801.46 327.077 1799.43 319 1792.39C298.256 1774.33 252.504 1777.14 244.795 1746C240.717 1729.53 258.465 1712.65 270.973 1704.95C276.923 1701.29 288.742 1700.28 288 1692M798 1908C803.718 1909.54 814.892 1915.71 820.28 1910.28C823.038 1907.5 822.335 1899.75 822.824 1896C824.244 1885.11 827.094 1875.41 830.364 1865C841.508 1829.53 862.854 1797.93 872.702 1762C874.131 1756.79 877.113 1750.31 874.978 1745C873.499 1741.32 864.368 1731.55 867.012 1727.72C869.101 1724.68 878.57 1724.71 882 1723.99C896.513 1720.97 912.03 1719.71 926 1714.53C929.481 1713.24 943.247 1708.35 941.985 1703.34C939.873 1694.94 913.186 1696.99 907 1697.7C875.751 1701.25 844.215 1707.88 813 1712.59C804.474 1713.88 786.326 1713.32 783.017 1723.54C780.743 1730.56 794.445 1733.22 799 1733.78C813.308 1735.53 827.859 1731.62 842 1730.39C847.447 1729.92 851.639 1732.24 851.898 1738C852.666 1755.11 839.308 1778.52 832.617 1794C816.146 1832.1 798 1865.92 798 1908z"/>
<path style="fill:#bebebe; stroke:none;" d="M699 1704C685.641 1734.54 665.756 1764.23 658 1797C666.712 1795.86 685.835 1796.48 692.352 1790.21C697.443 1785.32 695.888 1775.37 696.918 1769C700.307 1748.04 702 1725.17 702 1704L699 1704z"/>
<path style="fill:#28272b; stroke:none;" d="M930 1763C937.381 1764.76 941.664 1763.76 949 1762C948.31 1772.36 942.831 1782.36 939.361 1792C931.734 1813.19 923.13 1833.46 913.777 1853.94C908.429 1865.65 898.107 1881.23 903.07 1894.8C907.944 1908.14 922.528 1911.23 935 1912.11C961.899 1914.02 989.88 1906.14 1012.99 1891.9C1018.2 1888.69 1042.49 1870.75 1036.02 1864.22C1028.36 1856.49 1014.33 1865.4 1007.3 1869.13C982.54 1882.27 958.146 1892.38 930 1892C930.042 1876.15 940.293 1864.74 945.839 1850.69C948.4 1844.2 950.659 1834.28 956.341 1829.71C964.016 1823.52 986.228 1822.19 988.055 1809.79C989.301 1801.33 969.862 1801 965 1801C969.663 1789.19 976.398 1777.45 979.278 1765C980.377 1760.25 975.664 1753.91 980.276 1750.45C998.2 1737.01 1034.46 1735 1056 1735C1061.51 1735 1078.72 1737.52 1078.32 1728.18C1077.66 1712.89 1047.38 1714.93 1038 1715C1007.62 1715.25 975.076 1723.92 950.803 1742.35C944.93 1746.81 931.641 1755.62 930 1763M1070.11 1901.63C1060.66 1904.03 1059.98 1915.17 1065.54 1921.85C1070.27 1927.53 1081.88 1929.95 1088.96 1928.27C1095.34 1926.75 1094.12 1920.52 1091.58 1916C1087.55 1908.83 1079.53 1899.25 1070.11 1901.63z"/>
<path style="fill:#bebebe; stroke:none;" d="M247 1906L252 1906C249.841 1904.25 248.92 1903.87 247 1906z"/>
</svg>
