<svg width="580" height="400" xmlns="http://www.w3.org/2000/svg">
 <!-- Created with Method Draw - http://github.com/duopixel/Method-Draw/ -->

 <g>
  <title>background</title>
  <rect fill="none" id="canvas_background" height="402" width="582" y="-1" x="-1"/>
  <g display="none" overflow="visible" y="0" x="0" height="100%" width="100%" id="canvasGrid">
   <rect fill="url(#gridpattern)" stroke-width="0" y="0" x="0" height="100%" width="100%"/>
  </g>
 </g>
 <g>
  <title>Layer 1</title>
  <metadata transform="matrix(0.08663255288376437,0,0,0.08663255288376437,0,0) ">Created by potrace 1.10, written by Peter Selinger 2001-2011</metadata>
  <g stroke="null" id="svg_34">
   <g id="svg_19" fill="#ffd700" transform="matrix(0.14069112150047666,0,0,-0.13917342212164965,-4384.094985821142,-2370.0034401297917) ">
    <path stroke="null" id="svg_20" d="m32985.59766,-16504.814184c-36,-11 -77,-19 -92,-20c-35,0 -41,-11 -22,-38c19,-28 48,-28 127,-1c34,11 80,24 102,28c31,5 40,11 40,26c0,17 -8,20 -45,22c-25,1 -74,-7 -110,-17z"/>
    <path stroke="null" id="svg_21" d="m32697.59766,-16536.814184c-7,-7 -12,-26 -12,-42c0,-17 -4,-37 -8,-43c-4,-7 -53,-24 -107,-39c-159,-42 -144,-42 -138,3c4,31 1,41 -11,46c-19,7 -21,3 -30,-47c-5,-26 -20,-52 -47,-79c-37,-36 -39,-40 -25,-56c21,-24 20,-38 -10,-127c-27,-82 -29,-139 -4,-139c9,0 18,15 23,40c5,22 20,85 35,139c33,120 41,128 173,161c128,33 133,33 125,-7c-32,-156 -28,-271 11,-276c28,-4 36,23 23,81c-10,48 -1,123 24,195c8,21 17,70 21,109c6,64 5,72 -13,82c-13,7 -22,7 -30,-1z"/>
    <path stroke="null" id="svg_22" d="m32875.59766,-16636.814184c-11,-18 -20,-37 -20,-41c0,-4 -16,-15 -35,-23c-40,-17 -43,-24 -15,-49c11,-10 20,-26 20,-36c0,-33 22,-67 50,-79c23,-9 48,-7 131,11c57,12 110,23 117,25c14,4 16,40 2,49c-6,4 -48,-3 -94,-14c-105,-26 -161,-28 -152,-5c3,9 6,22 6,30c0,17 56,42 127,56c55,11 80,29 67,49c-5,8 -27,10 -75,5l-68,-6l2,27c2,22 -3,29 -20,31c-17,2 -28,-6 -43,-30z"/>
    <path stroke="null" id="svg_23" d="m33536.59766,-17121.814184c-29,-128 -35,-141 -68,-148c-84,-17 -103,-26 -103,-46c0,-12 14,-38 30,-59c17,-21 30,-49 30,-62c0,-41 -67,-289 -103,-383c-37,-95 -59,-118 -107,-113c-28,3 -36,29 -60,178c-11,62 -18,80 -44,106c-45,45 -102,60 -170,45c-160,-36 -425,-223 -470,-333c-14,-33 -14,-38 2,-58c12,-15 33,-24 62,-27c38,-4 47,-10 60,-36c19,-39 39,-45 171,-46c133,-1 196,-19 238,-66c17,-20 31,-40 31,-45c0,-10 -93,-41 -300,-101c-80,-23 -162,-50 -182,-60c-51,-26 -75,-24 -115,11c-39,35 -63,38 -70,10c-3,-12 -21,-52 -39,-90c-30,-63 -40,-74 -104,-115c-38,-25 -70,-52 -70,-60c0,-17 30,-35 58,-35c22,0 32,-18 32,-56c0,-14 10,-30 25,-40c23,-15 29,-14 106,11c54,18 113,49 176,92c117,79 271,154 471,228c170,64 170,64 203,-9l17,-39l-61,-51c-33,-28 -81,-71 -106,-96c-25,-25 -131,-110 -235,-190c-104,-80 -227,-180 -273,-222c-47,-43 -94,-80 -106,-83c-12,-3 -44,-10 -72,-15c-66,-14 -126,-50 -164,-99c-37,-46 -37,-52 -11,-76c25,-23 17,-31 -39,-40c-42,-7 -44,-6 -90,42c-25,27 -68,66 -96,88c-27,22 -69,56 -92,77c-47,42 -73,48 -73,19c0,-21 63,-87 202,-213c100,-91 90,-89 286,-59c70,11 172,22 227,26c55,3 188,18 295,31c277,36 677,44 961,19c193,-17 207,-17 263,-1c40,12 72,30 105,60c25,24 90,66 144,95c105,57 127,80 101,105c-8,9 -24,16 -34,16c-32,0 -197,-89 -246,-134c-87,-77 -101,-81 -254,-79c-74,1 -150,5 -168,8l-33,6l21,26c12,16 20,41 20,65c0,45 -18,65 -135,145c-76,53 -115,101 -115,144c0,35 5,38 164,84c120,35 136,37 213,31c78,-6 87,-4 128,19c23,14 69,30 101,35c140,23 251,117 333,280c63,126 86,223 78,339c-7,105 -24,155 -85,246c-71,105 -186,164 -287,148c-55,-9 -206,-112 -243,-165c-33,-49 -64,-130 -90,-237l-18,-75l-20,29c-40,61 -152,163 -198,180c-25,10 -46,19 -46,21c0,14 69,193 95,244c18,36 40,89 50,119c12,36 31,67 60,95c24,23 57,68 75,102c43,81 38,104 -34,145c-64,35 -69,41 -86,94c-19,58 -47,95 -74,95c-22,0 -25,-9 -45,-97zm113,-126c19,-24 36,-37 52,-37c13,0 24,-3 24,-7c0,-24 -48,-99 -80,-124c-30,-24 -45,-49 -70,-117c-18,-48 -50,-121 -70,-162c-21,-41 -46,-102 -56,-135c-10,-33 -24,-66 -33,-72c-16,-14 -61,-18 -61,-5c0,5 14,46 31,93c34,93 99,335 99,369c0,12 -12,37 -26,55c-14,19 -23,38 -20,44c3,5 28,12 56,16c27,4 53,12 58,18c4,7 17,48 27,92l19,80l10,-35c6,-20 24,-52 40,-73zm-577,-433c14,-9 23,-28 27,-56c22,-147 40,-214 68,-242c27,-27 32,-28 86,-22c163,18 209,18 260,2c61,-21 134,-83 188,-161c37,-54 38,-59 42,-153c4,-123 6,-134 39,-173c51,-60 144,-84 235,-59c52,15 245,205 283,280c34,66 40,164 12,216c-46,88 -178,134 -292,103c-137,-38 -195,-272 -92,-368c22,-20 33,-23 71,-19c25,3 43,2 41,-2c-7,-11 -129,-24 -159,-16c-57,14 -73,145 -35,297c39,155 71,201 195,283c81,53 216,42 277,-22c40,-42 96,-140 107,-186c26,-111 6,-236 -60,-374c-72,-152 -201,-255 -361,-288c-40,-8 -81,-20 -93,-26c-12,-7 -68,-12 -126,-13c-95,-1 -117,-5 -231,-43c-69,-23 -133,-50 -142,-60c-48,-53 5,-159 122,-244c31,-23 66,-53 78,-67c29,-33 30,-71 3,-71c-10,0 -23,-6 -27,-14c-8,-13 -153,-28 -180,-19c-39,14 14,67 78,78c22,4 43,13 46,21c7,20 -15,44 -41,44c-20,0 -197,117 -239,159c-10,9 -20,33 -23,52c-8,48 29,91 115,133c36,18 95,49 131,69c36,19 106,48 155,63c107,32 118,39 104,65c-13,25 -37,24 -138,-7c-96,-29 -144,-52 -204,-95c-46,-33 -55,-35 -72,-13c-11,15 -16,15 -56,2c-35,-12 -44,-20 -42,-36c3,-25 -36,-58 -156,-132c-95,-59 -255,-191 -272,-223c-7,-12 -45,-63 -85,-113c-64,-79 -81,-94 -128,-112c-114,-43 -291,-57 -291,-22c0,27 90,78 153,86c31,3 66,11 77,17c11,6 72,56 135,112c63,56 172,145 242,199c70,53 159,125 197,159c103,91 163,142 193,161c36,24 42,45 19,70c-10,12 -26,35 -34,52c-9,17 -23,37 -32,44c-14,12 -10,16 42,36c98,37 174,71 185,82c8,8 8,15 -1,26c-24,29 -49,27 -133,-8c-46,-20 -166,-65 -268,-101c-218,-78 -427,-178 -565,-271c-55,-36 -105,-68 -111,-71c-7,-2 -10,14 -10,44c1,42 -2,48 -21,51c-28,4 -29,12 -3,45c12,14 30,47 41,72l20,46l29,-21c38,-27 64,-25 139,10c74,36 327,116 501,160c131,33 190,57 190,76c0,24 -21,25 -80,5c-33,-12 -69,-21 -81,-21c-12,0 -41,22 -70,54c-34,38 -64,60 -97,71c-26,9 -65,25 -87,35c-29,13 -56,17 -100,14c-60,-5 -60,-5 -27,10c36,17 39,27 16,51c-14,13 -33,15 -130,9c-67,-4 -114,-3 -114,2c0,20 52,85 65,80c7,-2 35,15 61,40c59,53 74,56 74,10c0,-51 46,-86 110,-86c41,0 55,5 85,31c66,58 68,139 5,177l-30,19l37,11c75,23 119,22 160,-4zm-172,-84c8,-14 -22,-68 -45,-80c-24,-13 -82,-16 -99,-5c-15,8 -6,52 14,75c15,17 121,25 130,10zm1311,-256c60,-28 81,-104 50,-178c-16,-38 -70,-102 -99,-118c-20,-11 -21,-10 -6,13c9,13 28,45 43,71c45,78 35,160 -28,210c-27,23 -5,23 40,2zm-54,-61c19,-17 25,-53 8,-53c-5,0 -10,7 -10,15c0,8 -10,23 -22,35c-14,13 -17,20 -8,20c7,0 22,-7 32,-17zm-100,-75c-16,-16 -47,-4 -50,19c-3,22 -2,22 28,6c21,-10 28,-19 22,-25zm-87,-19c11,-24 31,-47 49,-57l31,-16l-40,-7c-70,-13 -99,23 -79,99c9,32 19,27 39,-19zm-71,-245c13,-3 55,-1 92,5c38,6 70,8 73,5c3,-2 -9,-19 -26,-36c-28,-28 -39,-31 -105,-35c-62,-4 -76,-2 -95,14c-26,23 -43,63 -43,100l0,25l40,-36c22,-19 51,-38 64,-42zm-735,-425c5,-39 37,-74 109,-123c37,-25 80,-57 96,-72l29,-26l-38,-35c-36,-33 -37,-37 -32,-82l6,-48l-182,-6c-156,-5 -345,-22 -477,-42l-35,-5l33,18c18,10 44,35 59,57c14,22 41,57 59,77c18,21 44,54 57,76c42,66 270,246 302,238c6,-1 12,-13 14,-27z"/>
    <path stroke="null" id="svg_24" d="m32805.59766,-17798.814184c0,-22 29,-41 42,-28c8,8 8,15 -2,27c-16,19 -40,20 -40,1z"/>
    <path stroke="null" id="svg_25" d="m33662.59766,-19364.814184c-85,-15 -201,-121 -232,-212c-17,-51 -18,-66 -8,-124c21,-121 106,-189 238,-189c64,0 81,5 158,43c140,69 189,141 189,277c1,134 -88,216 -232,214c-36,-1 -87,-5 -113,-9zm238,-80c74,-69 51,-213 -48,-294c-119,-97 -276,-113 -342,-35c-20,24 -25,41 -25,83c0,73 16,116 44,116c16,0 25,9 35,35c15,43 55,75 91,75c23,0 27,4 23,19c-4,17 1,20 38,24c95,10 157,2 184,-23z"/>
    <path stroke="null" id="svg_26" d="m33702.59766,-19561.814184c-9,-8 -9,-46 -1,-67c9,-25 37,-19 69,14c23,24 26,32 15,45c-12,15 -71,21 -83,8z"/>
    <path stroke="null" id="svg_27" d="m32420.59766,-19395.814184c-16,-5 -49,-6 -73,-3c-41,6 -44,5 -96,-47c-59,-59 -76,-101 -76,-184c0,-61 26,-119 71,-163c106,-104 337,-45 410,104c18,37 21,57 17,109c-7,82 -35,127 -102,165c-53,31 -95,36 -151,19zm184,-125c13,-30 14,-84 2,-117c-13,-34 -74,-93 -120,-116c-57,-30 -131,-37 -173,-17c-71,34 -98,136 -59,223c23,49 51,67 92,58c21,-5 36,-2 48,9c9,9 42,19 72,24c48,7 58,5 90,-15c20,-13 41,-35 48,-49z"/>
    <path stroke="null" id="svg_28" d="m32357.59766,-19576.814184c-34,-34 14,-102 56,-79c26,14 33,36 22,66c-7,19 -17,25 -38,25c-15,0 -33,-5 -40,-12z"/>
    <path stroke="null" id="svg_29" d="m33187.59766,-20301.814184c-10,-16 -29,-55 -42,-88c-12,-33 -42,-103 -65,-155c-24,-52 -57,-135 -75,-185c-41,-115 -47,-121 -92,-102c-47,20 -93,78 -125,160c-32,81 -38,70 104,167c54,37 98,73 98,81c0,32 -46,19 -127,-34c-110,-71 -200,-130 -217,-141c-12,-7 -13,5 -7,80c5,71 3,94 -8,109c-14,19 -16,19 -32,3c-12,-12 -18,-41 -22,-127c-4,-91 -8,-113 -23,-127c-24,-22 -24,-31 1,-39c15,-5 20,-17 22,-63c3,-55 4,-57 32,-60l29,-4l-6,56c-7,73 -1,92 40,116l34,20l15,-38c59,-149 119,-200 233,-198l55,1l41,103c22,57 48,107 55,112c8,4 31,10 51,14c43,8 49,-3 49,-96c0,-65 13,-106 36,-115c31,-12 36,11 23,115c-11,87 -10,122 5,260c20,180 17,202 -34,202c-20,0 -34,-8 -48,-27zm23,-188c-3,-39 -9,-76 -13,-81c-4,-6 -22,-14 -39,-17c-45,-9 -43,6 10,117c46,98 53,95 42,-19z"/>
    <path stroke="null" id="svg_30" d="m32210.59766,-20339.814184c-46,-17 -82,-57 -91,-102c-12,-64 39,-118 141,-147c29,-9 55,-22 58,-30c9,-23 -43,-86 -138,-166c-155,-132 -159,-136 -152,-153c4,-10 13,-17 20,-17c18,0 138,99 230,189c129,125 128,166 -8,216c-69,26 -94,44 -101,71c-8,33 16,66 76,106c33,21 45,35 37,40c-16,10 -25,10 -72,-7z"/>
    <path stroke="null" id="svg_31" d="m33540.59766,-20385.814184c-128,-22 -138,-25 -133,-42c3,-7 32,-14 79,-17c72,-5 74,-6 71,-30c-1,-14 -22,-70 -47,-126c-48,-107 -80,-217 -71,-240c3,-8 16,-14 29,-14c21,0 25,6 31,47c3,25 29,99 58,162c47,107 60,161 48,200c-4,11 8,17 40,22c78,14 120,29 120,44c0,20 -83,18 -225,-6z"/>
    <path stroke="null" id="svg_32" d="m33878.59766,-20423.814184c-54,-18 -133,-67 -133,-82c0,-5 9,-9 21,-9c25,0 24,-2 -42,-160c-27,-63 -49,-123 -49,-132c0,-30 40,-48 106,-48c51,0 74,6 125,33c66,34 91,60 74,76c-7,6 -34,-1 -77,-20c-37,-16 -88,-33 -113,-38c-55,-10 -57,-2 -17,79c20,40 37,59 62,71c40,19 46,42 12,47c-18,3 -22,8 -16,20c4,9 12,37 19,62c10,38 18,47 46,57c19,7 63,12 99,13c77,0 100,11 81,34c-19,22 -131,21 -198,-3z"/>
    <path stroke="null" id="svg_33" d="m34049.59766,-20849.814184c-9,-21 14,-45 42,-45c26,0 30,11 14,41c-13,23 -48,25 -56,4z"/>
   </g>
  </g>
  <path d="m127.5,114.499995c1,0 3,-9.656097 6,-19.312195c3,-9.656097 5.292892,-12.484305 6,-19.312195c0.707108,-6.827892 0.902832,-11.821038 3,-19.312195c3.867004,-13.813009 8,-28.968292 11,-38.62439c0,0 0,0 1,0c0,0 1,0 4,0c5,0 13,-9.656097 15,-9.656097c1,0 2,9.656097 2,0c0,-9.656097 -1.076126,5.960868 -2,9.656097c-1.306564,5.225842 -4.878555,33.733183 -8,38.62439c-1.974182,3.093471 -4.823746,14.351441 -7,19.312195c-0.973251,2.218518 -2,9.656097 -2,9.656097c0,0 0,0 1,0l4,19.312195l1,9.656097l1,0" id="svg_35" stroke-width="1.5" fill="none"/>
 </g>
</svg>