<svg width="1257" height="1279" xmlns="http://www.w3.org/2000/svg">

 <g>
  <title>background</title>
  <rect fill="none" id="canvas_background" height="402" width="582" y="-1" x="-1"/>
 </g>
 <g>
  <title>Layer 1</title>
  <path id="svg_1" fill="#ffcc00" d="m715,358c-5.747,1.969 -6.984,10.659 -8.296,16c-2.854,11.615 -10.67,20.565 -10.704,33c-9.348,0.407 -18.814,3.697 -28,5.459c-3.858,0.74 -9.018,2.762 -12.686,0.362c-3.762,-2.462 -3.915,-9.846 -4.813,-13.821c-2.727,-12.073 -6.189,-23.741 -7.79,-36c-1.062,-8.127 -4.252,-15.872 -5.411,-24c-1.293,-9.068 -0.403,-18.792 -2.76,-27.711c-4.812,-18.209 -22.017,-30.907 -38.54,-37.952c-22.04,-9.397 -47.754,-8.832 -69.961,-0.58c-4.312,1.602 -7.803,4.78 -12.114,6.423c-24.814,9.459 -48.154,20.525 -69.925,35.791c-10.182,7.139 -20.686,13.66 -30.961,20.655c-5.295,3.604 -9.852,8.363 -16.039,10.374c-2.042,7.492 -10.853,10.151 -15.541,15.989c-8.077,10.06 -16.624,20.258 -25.321,29.841c-6.338,6.985 -14.809,15.327 -18.426,24.259c-6.578,16.245 1.29,30.024 18.288,33.533c11.287,2.33 22.831,3.753 34,6.378c0.01,3.468 0.103,6.677 1.233,9.996c8.572,25.169 39.56,20.004 60.767,20.004c10.033,0 20.021,-1.985 30,-1.921c4.05,0.027 7.201,2.303 11.09,2.791c5.584,0.702 11.316,-0.369 16.91,0.259c5.453,0.612 10.822,2.505 16.17,3.626c11.188,2.347 22.188,4.284 31.741,11.09c9.113,6.492 19.818,16.571 25.597,26.17c2.421,4.02 3.273,8.829 5.492,12.985c-19.723,0.847 -39.119,11.739 -58,17.091c-11.609,3.291 -23.614,5.74 -35,9.658c-5.057,1.741 -9.824,4.447 -15,5.876c-28.695,7.923 -57.557,15.543 -86.001,24.414c-14.359,4.478 -27.131,13.762 -41.999,17.408c-16.976,4.163 -22.273,-13.555 -34.039,-21.482c-4.517,-3.043 -14.523,-7.041 -19.814,-3.937c-5.652,3.315 -6.68,15.233 -8.615,20.933c-3.128,9.214 -7.809,18.111 -11.624,27.039c-2.401,5.62 -3.956,10.741 -7.667,15.831c-11.528,15.81 -30.07,27.409 -46.331,37.861c-4.928,3.168 -9.652,7.264 -14.914,9.816c-2.978,1.444 -7.309,2.352 -8.875,5.625c-1.367,2.859 0.438,6.263 1.614,8.867c5.763,12.76 22.271,9.752 34.265,10c-2.613,9.619 6.848,16.093 10,24c-8.501,4.396 -4.603,13.138 1.34,18.571c5.498,5.027 14.57,6.216 21.66,5.22c11.324,-1.592 21.439,-7.75 32,-11.545c10.734,-3.858 22.501,-4.212 32.91,-9.531c7.643,-3.904 14.272,-11.104 21.086,-16.277c5.351,-4.062 11.37,-6.777 17.004,-10.377c16.352,-10.448 32.884,-20.015 49.576,-29.77c21.383,-12.495 42.16,-25.294 65.424,-34.097c17.744,-6.715 34.438,-16.246 52,-23.484c9.116,-3.757 18.851,-5.758 28,-9.304c14.506,-5.623 28.896,-12.78 44,-16.641c8.668,-2.217 17.657,-4.91 25.985,-8.193c3.102,-1.223 7.238,-4.856 10.715,-3.606c3.593,1.292 5.217,6.094 7.625,8.745c4.31,4.745 9.39,8.465 12.287,14.378c1.835,3.748 2.219,7.913 3.287,11.896c0.907,3.385 3.806,7.184 2.144,10.718c-1.549,3.293 -5.254,4.751 -8.032,6.751c-3.51,2.528 -6.846,5.717 -9.804,8.871c-4.373,4.662 -8.425,9.812 -13.336,13.944c-11.241,9.459 -24.087,16.423 -34.738,26.735c-3.132,3.033 -3.865,7.301 -6.897,10.491c-7.011,7.378 -16.066,13.218 -24.052,19.404c-2.47,1.914 -4.196,4.51 -6.563,6.507c-13.475,11.369 -28.383,21.49 -42.582,32.018c-10.189,7.556 -18.307,17.553 -28.449,25.345c-18.266,14.033 -37.259,26.803 -55.594,40.706c-5.41,4.103 -9.669,9.484 -15.039,13.483c-9.964,7.418 -21.15,13.511 -29.853,22.481c-3.354,3.457 -4.992,8.073 -8.449,11.507c-3.924,3.899 -9.307,5.906 -13.471,9.608c-12.929,11.498 -25.358,24.511 -41.184,32.012c-12.056,5.713 -26.385,2.382 -39,6.523c-22.522,7.395 -49.819,19.527 -63.312,39.926c-4.128,6.24 -10.539,12.857 -12.963,19.985c-1.508,4.433 -0.401,8.19 4.275,9c2.113,8.04 10.357,13.75 18,16l0,2c-11.418,2.72 -24.293,4.27 -36,5.09c-4.75,0.33 -10.135,1.95 -14.829,0.4c-4.338,-1.44 -8.017,-6.42 -11.186,-9.53c-7.614,-7.46 -15.048,-15.09 -22.27,-22.921c-13.597,-14.74 -31.58,-25.235 -46.7,-38.335c-7.331,-6.351 -15.6629,-12.289 -22.5513,-19.079c-4.577,-4.512 -7.9668,-9.664 -13.4637,-13.281c-3.6055,-2.372 -13.5987,-4.379 -17.3927,-1.316c-3.4889,2.816 0.225,10.126 1.9405,12.968c6.8067,11.279 15.5159,21.599 24.7338,30.953c19.3694,19.655 43.0934,34.852 63.5474,53.361c6.833,6.18 14.088,13.4 20.067,20.4c3.601,4.22 5.073,9.33 10.274,12.32c7.162,4.11 21.849,2.74 29.83,1.79c42.282,-5.06 84.534,-12.61 127,-16.65c15.601,-1.49 31.366,-3.01 47,-4.08c13.942,-0.96 28.124,-0.37 42,-2.3c46.85,-6.51 93.839,-13.11 141,-17.62c18.26,-1.74 36.718,-1 55,-2.26c16.251,-1.12 32.694,-3.5 49,-3.9c23.987,-0.58 48.014,0.56 72,-0.02c12.638,-0.31 25.362,-1.67 38,-1.98c21.248,-0.52 42.827,0.63 64,2.08c8.741,0.6 17.273,3.22 26,3.82c17.581,1.21 35.455,-0.44 53,1.26c19.989,1.93 39.861,5.91 60,6.79c8.294,0.36 16.712,-0.64 25,-1c11.26,-0.49 19.62,-3.77 30.04,-7.51c12.42,-4.46 24.21,-9.24 34.5,-17.794c7.28,-6.059 11.56,-14.901 18.97,-20.678c6.47,-5.044 14.04,-8.32 21.07,-12.417c14.21,-8.29 28.3,-16.701 43.42,-23.345c9.33,-4.102 24.37,-9.808 29.76,-18.795c2.56,-4.275 3.83,-12.569 -0.27,-16.316c-11.13,-10.157 -22.68,-6.1 -34.5,-1.03c-19.14,8.205 -36.86,19.424 -55.99,28.081c-13.97,6.322 -26.87,16.683 -37.87,27.268c-7.55,7.278 -14.66,16.421 -24.42,20.905c-11.91,5.475 -25.63,11.506 -38.71,13.371c-26.283,3.746 -53.923,-2.049 -80,-4.53c-18.53,-1.764 -37.401,-1.702 -56,-3.17c4.573,-4.343 12.555,-4.949 16.196,-10.539c6.736,-10.341 6.804,-23.64 6.804,-35.461c0,-19.949 -2.096,-41.184 0.129,-61c2.345,-20.891 11.343,-40.811 20.716,-59.286c4.635,-9.135 9.788,-18.649 16.61,-26.389c6.925,-7.857 17.27,-15.738 27.634,-18.104c6.195,-1.414 12.887,-0.302 18.896,-2.28c3.358,-1.105 5.781,-3.708 9.054,-4.913c5.026,-1.85 10.113,-1.2 14.961,-3.983c5.943,-3.413 12.06,-6.657 17.95,-10.144c2.79,-1.658 4.93,-4.384 8.1,-5.333c15.5,-4.625 32.63,-1.429 47.78,-8.353c11.38,-5.204 23.23,-10.094 33.87,-16.889c17.7,-11.303 33.42,-27.731 47.64,-42.905c5.36,-5.723 12.45,-10.635 17.07,-16.935c7.76,-10.593 12.81,-23.818 18.63,-35.486c4.25,-8.515 10.04,-16.262 13.93,-25c6.32,-14.194 9.53,-29.12 13.87,-43.961c0.93,-3.167 2.97,-5.808 3.68,-9.054c1.19,-5.486 0.83,-11.399 1.77,-16.985c2.48,-14.867 6.4,-30.914 5.67,-46c-0.48,-9.935 -5.06,-19.442 -6.92,-29.039c-2.91,-14.992 -3.06,-30.391 -8.44,-44.961c-3.17,-8.611 -9.98,-15.937 -14.22,-24c-7.94,-15.079 -15.57,-30.089 -26.37,-43.421c-3.43,-4.241 -7.97,-7.121 -12.09,-10.618c-7.97,-6.769 -15.41,-13.081 -24.92,-17.702c-6.71,-3.257 -13.93,-4.203 -21,-6.301c-25.5,-7.569 -51.89,-9.418 -77,0.886c-12.02,4.932 -22.47,14.214 -32.324,22.462c-5.33,4.46 -10.758,8.787 -16.055,13.189c-3.182,2.644 -6.26,3.325 -7.621,7.505c-15.598,1.164 -28.873,23.07 -34.089,36c-5.91,14.648 -11.945,29.203 -17.317,44c-2.368,6.524 -3.111,13.405 -5.167,19.996c-1.506,4.826 -4.456,9.101 -5.794,14.004c-0.888,3.259 -0.516,6.687 -1.097,10c-1.969,11.242 -4.536,21.503 -4.536,33l-5,0c-1.507,-5.553 -6.156,-9.745 -9.525,-14.285c-3.28,-4.418 -6.165,-9.221 -9.4,-13.716c-23.733,-32.976 -56.661,-58.114 -95.075,-70.999c9.092,-20.511 13.147,-43.22 21.605,-64c10.309,-25.327 24.472,-48.845 34.97,-74c6.362,-15.246 9.275,-32.721 17.638,-47c4.823,-8.235 15.285,-12.002 21.983,-18.665c11.404,-11.346 15.746,-27.105 24.475,-40.049c4.519,-6.702 13.347,-16.113 14.221,-24.286c0.691,-6.462 -1.261,-10.305 -3.362,-16.075c-2.605,-7.153 -4.405,-13.9 -11.534,-18.016c-6.388,-3.688 -14.644,-4.08 -20.787,-8.0447c-3.673,-2.3704 -5.618,-6.7594 -9.213,-9.3543c-3.877,-2.7989 -9.23,-3.1426 -12.407,-6.9891c-2.572,-3.1129 -2.118,-7.6383 -3.62,-11.2354c-5.051,-12.0986 -7.545,-26.0852 -14.868,-37.196c-1.367,-2.075 -3.301,-3.5894 -5.105,-5.2593c-4.916,-4.5518 -17.231,-18.29687 -25.153,-10.2268c-2.276,2.3188 -2.536,6.3663 -2.892,9.3966c-0.69,5.8669 -1.174,12.2717 -2.549,18c-1.901,7.9218 -3.019,16.2181 -5.428,24c-1.901,6.1438 -5.178,11.658 -6.46,18c-0.655,3.2421 -0.143,6.6362 -0.984,9.8302c-1.181,4.4888 -3.627,8.6828 -4.9,13.1698c-0.977,3.443 -0.651,7.47 -2.449,10.656c-2.32,4.111 -9.087,3.821 -13.181,4.92c-9.864,2.646 -20.085,3.886 -30,6.54c-4.981,1.334 -11.424,3.053 -14.011,8.069c-3.016,5.848 0.754,15.298 4.46,19.891c6.458,8.005 12.994,15.987 18.005,24.928c1.736,3.097 4.337,6.139 4.157,9.907c-0.441,9.237 -5.464,18.055 -7.236,27.089c-5.437,27.724 -11.921,55.903 -20.124,83c-5.311,17.544 -13.03,34.768 -15.251,53m117,-294c2.926,6.6011 4.681,13.853 5.7,21c0.619,4.3483 -0.149,8.803 1.444,13c3.097,8.156 10.073,10.399 15.527,16.144c5.868,6.181 5.854,16.601 16.344,18.138c3.708,0.543 8.124,-1.247 11.985,-1.282c0,2.991 3.334,2.79 6,3c-1.189,6.565 -5.977,10.427 -9.211,16c-7.025,12.103 -12.721,23.187 -22.315,33.678c-7.413,8.107 -16.583,12.845 -22.574,22.322c-5.909,9.349 -8.607,21.598 -12.141,32c-4.1,12.071 -9.564,24.47 -14.971,36c-3.389,7.227 -7.884,13.906 -11.516,21c-2.959,5.781 -4.779,11.912 -7.482,17.711c-2.51,5.385 -6.437,9.781 -8.616,15.459c-3.031,7.895 -6.416,16.617 -8.591,24.83c-1.323,4.995 -1.717,10.08 -3.422,14.996c-3.886,11.211 -11.601,22.962 -12.161,35.004c-10.757,0 -21.299,0.155 -32,1c1.597,-8.47 5.174,-15.039 8.059,-23.001c4.428,-12.214 8.432,-24.716 12.585,-36.999c3.619,-10.702 7.645,-21.399 10.865,-32.17c1.733,-5.797 2.328,-12.023 4.114,-17.83c2.478,-8.061 5.601,-15.685 7.489,-24c3.311,-14.586 5.357,-29.376 8.259,-44c1.918,-9.663 6.826,-19.306 7.992,-28.996c0.832,-6.909 -6.17,-9.317 -10.079,-13.384c-4.132,-4.297 -6.589,-10.631 -10.17,-15.45c-1.978,-2.662 -6.261,-6.156 -5.297,-9.945c1.135,-4.462 10.433,-5.916 14.183,-6.61c8.18,-1.514 16.779,-3.446 25,-4.431c5.793,-0.693 11.385,0.726 15.686,-4.293c5.112,-5.965 3.111,-14.871 4.728,-21.891c0.711,-3.085 2.216,-5.858 2.817,-9c0.952,-4.984 0.666,-10.088 2.07,-15c1.482,-5.184 4.347,-9.7087 5.694,-15c1.502,-5.8943 1.351,-12.4794 4.005,-18m-221,248c0.5,4.102 2.155,7.896 2.71,12c2.67,19.765 5.56,39.312 9.535,58.911c2.649,13.066 5.755,24.57 5.755,38.089c4.761,1.036 4.476,3.937 7.343,7.252c2.185,2.526 5.027,4.755 7.403,7.132c4.998,5 12.411,7.572 19.254,8.847c14.454,2.694 27.082,-3.307 41,-5.767c22.506,-3.979 44.3,-5.068 67,-2.638c5.037,0.54 10.021,-0.166 15,1.077c15.12,3.774 27.957,12.778 40.285,21.699c4.034,2.919 8.049,4.999 11.73,8.488c7.842,7.435 14.242,17.64 22.985,23.91c0.49,4.91 4.305,7.596 7.204,11.286c5.791,7.37 10.148,19.316 18.796,23.714c0.057,5.159 2.301,8.234 3.526,13.015c1.295,5.053 2.18,11.764 2.434,16.985c1.085,22.313 -1.131,44.056 3.522,66c1.033,4.869 0.378,10.005 2.307,14.714c5.193,12.676 17.964,25.016 28.621,33.156c21.786,16.642 50.42,12.628 75.59,9.416c9.78,-1.249 21.43,-1.571 29.87,-7.429c7.01,-4.865 11.79,-12.289 16.99,-18.768c2.26,-2.827 5.25,-4.869 7.68,-7.528c7.07,-7.749 13.33,-16.34 20.88,-23.715c5.03,-4.918 10.62,-9.749 16.62,-13.47c3.77,-2.341 7.53,-3.671 10.84,-6.765c12.48,-11.637 19.75,-25.71 27.35,-40.61c6.05,-11.831 12.53,-23.531 14.47,-37.001c3.02,-20.994 2.42,-47.3 -8.63,-65.95c-2.49,-4.201 -6.68,-7.582 -10.06,-11.05c-10.33,-10.607 -22.19,-18.314 -36.01,-23.886c-9.11,-3.671 -18.48,-4.096 -28,-5.917c-14.33,-2.742 -30.63,-4.252 -45,-0.783c-3.56,0.86 -6.59,3.117 -10,4.398c-5.09,1.916 -10.341,2.814 -15.001,5.886c-6.249,4.121 -11.23,9.593 -16.26,15.017c-6.255,6.746 -12.937,14.998 -14.739,24.285l-3,0c-0.569,6.953 -3.998,11.914 -6.248,18.286c-2.274,6.439 -3.407,14.923 -4.456,21.714c-1.152,7.467 -0.174,14.562 0.534,22c0.621,6.517 0.049,13.62 1.644,20c4.36,17.446 20.907,34.352 37.526,40.211c12.64,4.457 27.05,-6.036 40,-2.211l0,2c-11.07,5.148 -24.98,4.948 -37,6.169c-11.745,1.193 -25.176,7.357 -37,4.412c-7.345,-1.829 -11.269,-8.828 -15.249,-14.577c-3.509,-5.067 -7.726,-10.073 -9.657,-16.008c-1.282,-3.94 -0.883,-7.946 -1.38,-11.996c-1.368,-11.134 -1.263,-21.812 -1.753,-33c-1.244,-28.411 7.646,-56.306 16.729,-83.039c6.602,-19.432 13.281,-40.02 26.835,-55.832c8.181,-9.545 18.919,-15.658 28.475,-23.565c15.8,-13.075 32.85,-26.174 53,-31.699c21.95,-6.017 51.64,-1.09 72,8.424c15.88,7.42 28.41,20.873 37.24,35.711c4.41,7.423 7.88,15.494 12.9,22.579c5.27,7.445 10.48,17.389 12.38,26.46c1.5,7.172 1.23,14.712 2.84,21.961c1.69,7.543 3.06,15.418 4.92,22.911c0.63,2.499 2.21,4.54 2.58,7.128c0.83,5.801 -0.45,12.178 -1.03,17.961c-1.82,18.221 -6.09,35.19 -10.24,53c-2.84,12.197 -5.6,24.476 -10.94,36c-2.83,6.096 -7.47,11.392 -11.07,17.039c-2.5,3.918 -3.92,8.21 -6.2,12.207c-2.53,4.423 -5.56,7.572 -6.38,12.754c-5.32,3.237 -7.42,11.833 -10.89,16.996c-3.02,4.492 -7.6,6.778 -11.29,10.62c-3.01,3.135 -4.3,6.608 -8.82,7.384l0,3c-9.02,2.613 -14.04,12.681 -20.44,18.917c-9.68,9.431 -22.15,17.254 -33.85,23.913c-11.41,6.503 -25.99,11.032 -38.75,13.845c-9.17,2.021 -18.77,1.953 -27.96,3.838c-13.243,2.716 -25.642,9.851 -39,11.487l1,7c-19.864,-0.853 -38.934,-4.839 -59,-3.961c-15.758,0.69 -29.848,5.431 -45,9.062c-20.621,4.942 -41.338,9.398 -61,17.726c-10.92,4.625 -22.911,6.342 -34,10.576c-8.096,3.091 -15.824,6.518 -18.856,15.597c-2.12,6.347 -1.791,15.411 -0.959,22c0.701,5.552 3.633,12.651 5.499,18c9.641,27.635 35.997,47.431 59.316,63.166c12.03,8.117 21.446,16.641 30.789,27.809c3.999,4.781 8.859,9.781 9.948,16.195c0.994,5.85 -3.129,10.246 -3.737,15.83c-6.336,-0.022 -20.96,-6.121 -21.682,5.036c-0.125,1.931 0.442,4.052 0.682,5.964c-10.657,0.841 -21.321,2.426 -32,2.896c-6.552,0.288 -13.372,-0.896 -20,-0.896c-10.058,0 -20.329,1.018 -30,-2c0.018,-6.697 0.532,-13.479 5.519,-18.518c2.266,-2.29 5.287,-3.323 7.735,-5.342c2.966,-2.445 5.092,-5.505 8.835,-6.891c11.321,-4.19 25.033,-3.312 36.911,-4.249c0.082,-6.986 5.134,-13.047 -0.85,-19.161c-8.579,-8.764 -22.196,-5.379 -32.15,-11.308c-6.865,-4.089 -14.541,-8.074 -21,-12.74c-9.443,-6.822 -17.72,-14.954 -27,-21.945c-8.191,-6.17 -17.195,-10.869 -25,-17.557c-6.318,-5.413 -13.072,-9.243 -18.985,-15.288c-2.554,-2.61 -5.882,-5.461 -6.736,-9.171c-1.658,-7.192 -2.678,-18.341 -0.82,-25.544c1.415,-5.485 5.071,-8.154 8.472,-12.26c4.804,-5.799 8.69,-12.822 15.084,-17.172c3.325,-2.263 7.402,-3.176 10.985,-4.964c9.64,-4.808 19.263,-9.39 29,-13.971c17.348,-8.162 32.134,-20.785 49.004,-29.748c16.728,-8.889 36.893,-14.924 54.996,-20.21c8.502,-2.483 16.292,-6.32 25,-8.487c7.847,-1.954 17.741,-2.57 24.83,-6.634c8.543,-4.896 7.453,-12.458 1.115,-18.785c-3.976,-3.969 -10.233,-6.666 -15.941,-5.403c-3.514,0.778 -6.491,2.969 -10.043,3.718c-8.485,1.79 -16.947,2.534 -24.961,6.22c-20.249,9.315 -42.467,14.194 -62.911,23.015c-18.538,7.998 -35.022,20.924 -52.089,31.366c-9.153,5.6 -9.296,-10.098 -18.011,-11.608c-5.815,-1.008 -8.478,4.2 -13.275,6.049c-7.229,2.787 -15.595,0.747 -22.601,5.593c-5.987,4.141 -0.283,6.105 1.283,10.258c0.981,2.604 -0.164,5.502 -1.544,7.722c-3.147,5.062 -8.133,7.93 -12.686,11.469c-6.914,5.375 -13.503,11.105 -20.295,16.546c-16.169,12.954 -35.095,20.642 -52.701,31.106c-21.677,12.882 -40.166,30.067 -59.456,46.188c-9.973,8.335 -21.175,15.464 -30.119,24.967c-5.16,5.482 -7.66,11.408 -11.416,17.735c-3.022,5.092 -6.994,9.852 -10.479,14.629c-3.369,4.618 -8.426,8.004 -11.975,12.544c-8.813,11.273 -17.095,22.82 -26.146,33.92c-4.943,6.063 -7.661,14.71 -13.634,19.696c-5.638,4.706 -12.282,6.867 -18.941,9.538c-10.06,4.036 -19.428,7.837 -30.004,10.706c-24.22,6.57 -46.63,12.711 -72,12.971c-9.59,0.09 -21.643,0.36 -31,-1.67c-5.174,-1.123 -8.563,-2.804 -9,-8.33l3,0c0.81,-5.14 4.256,-6.844 7.91,-10.166c8.02,-7.291 17.721,-14.275 28.09,-17.829c6.526,-2.237 13.314,-6.353 20.039,-7.666c4.548,-0.887 9.358,-0.113 13.961,-0.428c14.215,-0.975 26.39,-3.757 37.834,-12.505c11.301,-8.639 20.587,-18.649 31.336,-27.79c3.521,-2.995 8.006,-4.402 11.215,-7.746c9.567,-9.968 18.943,-25.222 33.615,-27.87c0.966,-5.844 7.152,-7.65 11.485,-11.036c6.605,-5.162 11.957,-11.758 18.605,-16.756c4.075,-3.063 9.339,-4.674 11.91,-9.208c4.979,-1.353 7.431,-5.165 11.156,-8.489c4.302,-3.84 9.349,-7.15 14.028,-10.508c4.787,-3.436 10.444,-6.184 14.842,-10.108c7.21,-6.432 13.54,-13.991 21.259,-19.98c10.443,-8.104 23.262,-13.523 32.675,-22.915c8.447,-8.429 18.388,-14.902 26.87,-23.089c4.124,-3.981 8.392,-10.969 14.17,-11.911c1.305,-5.249 4.574,-7.26 8.546,-10.539c8.545,-7.057 17.796,-12.543 26.793,-18.96c5.616,-4.006 12.418,-9.018 17.166,-13.96c4.1,-4.267 7.244,-9.239 11.781,-13.246c4.594,-4.059 11.899,-5.969 15.821,-10.713c4.622,-5.592 6.733,-12.894 10.893,-18.582c-4.841,-2.806 -7.448,-6.827 -11.466,-10.481c-2.026,-1.842 -4.641,-3.071 -5.792,-5.704c-1.036,-2.371 -0.735,-5.293 -0.742,-7.815l-3,0c-1.558,-11.715 -12.759,-23.49 -22,-30l0,-3c27.009,-9.945 54.114,-19.739 80.286,-31.805c7.556,-3.484 17.956,-4.617 24.396,-10.164c9.813,-8.452 -7.741,-20.149 -14.683,-22.276c-8.133,-2.493 -21.011,3.292 -28.423,6.625c-18.378,8.264 -36.687,16.374 -55.576,23.44c-41.221,15.421 -83.022,29.284 -124,45.434c-12.503,4.927 -24.539,11.119 -37,16.141c-5.209,2.099 -10.832,3.249 -16,5.404c-16.31,6.803 -31.932,15.598 -48,22.943c-6.659,3.043 -13.582,5.354 -19.961,9.059c-28.41,16.502 -58.039,31.271 -85.038,49.793c-14.037,9.63 -27.839,27.201 -46.001,28.406c2.498,-8.05 5.138,-11.603 -2,-18c1.322,-4.828 6.57,-10.225 6.544,-15.004c-0.06,-11.175 -17.929,-11.996 -25.544,-11.996c2.24,-7.044 9.239,-13.695 13.113,-20.171c5.015,-8.38 8.719,-17.13 13.01,-25.829c3.585,-7.267 8.293,-14.317 10.877,-22c12.605,1.65 19.542,17.353 33,16.725c6.104,-0.285 12.581,-3.357 18.285,-5.373c12.02,-4.249 23.146,-9.321 34.715,-14.617c17.975,-8.23 38.325,-12.813 57,-19.061c16.713,-5.591 34.118,-9.359 51,-14.443c14.77,-4.449 29.131,-10.492 44,-14.637c32.213,-8.979 64.995,-16.56 97,-26.163c12.528,-3.758 24.592,-9.896 37,-13.431c0.43,-3.239 4.232,-8.601 2.263,-11.505c-6.684,-9.861 -18.402,-3.746 -26.302,-0.237c-9.578,4.256 -20.811,6.175 -30.961,8.64c-8.876,2.156 -16.793,5.101 -26,5.102c-1.939,-12.946 -11.155,-21.827 -20,-30.745c-9.391,-9.468 -19.955,-19.138 -32,-25.12c-12.492,-6.203 -29.27,-9.116 -43,-11.135c-1.488,-9.633 -10.79,-10.997 -19,-11c-18.818,-0.007 -37.176,3 -56,3c4.973,-6.76 17.831,-6.957 24.826,-11.814c2.189,-1.52 5.359,-3.739 6.057,-6.486c2.689,-10.588 -11.688,-17.646 -19.883,-17.699c-5.737,-0.037 -11.301,0.845 -17,0.984c-6.933,0.17 -14.107,-0.625 -21,0.199c-5.395,0.646 -10.51,2.536 -16,2.777c-12.41,0.544 -24.645,-0.961 -37,-0.961c2.65,-10.972 7.808,-20.039 14.796,-28.985c2.383,-3.052 5.027,-7.478 8.703,-9.142c4.79,-2.167 8.149,5.409 12.716,0.804c3.009,-3.034 4.711,-7.332 7.592,-10.548c4.426,-4.941 10.156,-7.865 15.283,-11.894c8.292,-6.516 14.65,-14.111 25.91,-14.235c-0.017,6.317 -1.679,12.704 -0.696,18.996c0.67,4.287 2.921,8.142 4.769,12.008c5.427,11.347 13.969,17.445 25.927,20.841c17.139,4.868 36.838,4.345 51.996,-6.301c9.685,-6.802 18.076,-19.747 22.596,-30.583c10.148,-24.333 -0.885,-56.695 -30.592,-56.961l0,-4c10.144,-0.526 18.438,-7.487 28,-9.701c17.183,-3.98 38.176,-3.64 53.999,4.636c5.491,2.872 8.746,8.244 14.001,11.065m-95,21.29c12.676,-1.401 13.033,10.394 8.661,19.54c-6.59,13.786 -15.022,26.317 -31.661,28.062c-7.74,0.812 -22.269,2.261 -28.697,-2.887c-3.23,-2.587 -3.273,-7.216 -3.298,-11.005c-0.069,-10.201 6.286,-23.116 14.42,-29.362c6.889,-5.289 10.76,0.528 17.59,0.608c2.901,0.034 5.296,-1.797 7.985,-2.599c4.616,-1.375 10.202,-1.827 15,-2.357m-31,16.71c0.008,10.142 5.644,20.63 17,21c0.525,-3.862 2.785,-7.062 2.951,-11.004c0.499,-11.775 -11.651,-11.045 -19.951,-9.996m637,174l-3,0c-0.42,6.309 -4.33,9.797 -7.41,15.004c-3.29,5.589 -5.06,11.95 -8.64,17.382c-3.84,5.825 -9.71,11.012 -11.95,17.614c-8.11,1.882 -15.42,7.565 -23,11c1.94,-9.73 10.21,-18.069 15.37,-26.286c16.03,-25.542 31.11,-56.308 14.64,-85.544c-2.96,-5.251 -6.64,-10.939 -11.01,-15.08c-4.81,-4.545 -10.8,-7.988 -15,-13.09c14.4,0.658 25.91,5.409 37.83,13.189c4.79,3.127 10.42,6.599 12.75,12.097c3.87,9.148 5.79,23.926 4.09,33.714c-1.17,6.769 -3.79,13.074 -4.67,20m-42,-18c-5.36,-0.895 -4.64,-4.491 -5.98,-9c-1.51,-5.103 -3.8,-12.573 -7.49,-16.482c-5.34,-5.643 -15.37,-6.373 -19.53,-12.518c5.92,0 12.35,-0.542 17.99,1.664c8.49,3.322 16.89,14.281 17.88,23.425c0.51,4.776 -1.84,8.466 -2.87,12.911m-45,-1c-1.79,6.425 -12.83,14.074 -19.53,9.971c-7.8,-4.774 -9.69,-17.372 -6.47,-24.971c5.04,1.655 5.32,7.806 9.73,10.852c4.43,3.051 11.14,2.705 16.27,4.148m-56,-7c11.052,9.435 12.346,25.782 21.29,36.961c5.75,7.186 14.07,7.044 21.65,11.097c3.66,1.955 2.18,4.776 1.06,7.942c-13.57,0 -30.111,5.696 -42.772,-1.723c-4.357,-2.553 -4.153,-8.858 -4.807,-13.277c-1.824,-12.324 -2.509,-29.632 3.579,-41m-60,93c13.283,15.622 28.313,33.797 50,36.71c8.703,1.169 17.541,-2.058 26,-3.709c7.32,-1.43 14.65,-1.416 22,-2.287c6.43,-0.761 12.51,-2.692 19,-2.714c-1.19,4.238 -4.04,7.032 -6.57,10.572c-5.38,7.56 -12.07,14.605 -20.6,18.87c-5.51,2.757 -12.806,3.124 -18.83,3.727c-7.752,0.776 -15.184,1.831 -23,1.831c-9.571,0 -19.45,0.919 -28,-4.283c-5.826,-3.545 -13.714,-11.443 -16.487,-17.717c-2.316,-5.241 -2.364,-11.43 -3.267,-17c-1.154,-7.118 -3.11,-17.174 -0.246,-24m-22,172c-3.253,6.677 -10.231,11.856 -14.576,18c-5.717,8.086 -9.915,17.279 -14.506,26.015c-1.99,3.786 -4.793,7.118 -6.648,10.981c-11.27,23.477 -11.27,50.572 -11.27,76.004c-8.319,-1.321 -15.852,-9.254 -23,-13.684c-20.85,-12.92 -43.883,-26.16 -52.681,-50.316c-2.9,-7.964 -5.796,-19.814 -0.381,-27.532c6.022,-8.584 21.756,-10.763 31.062,-13.649c22.948,-7.118 45.639,-15.267 69,-20.858c7.612,-1.821 15.116,-4.793 23,-4.961m-258,36c0.017,6.261 -0.147,15.321 2.974,20.911c3.841,6.879 12.263,12.755 17.78,18.388c19.329,19.739 43.07,33.225 64.261,50.665c4.113,3.385 8.646,6.865 13.024,9.896c2.111,1.462 5.523,2.16 6.914,4.449c2.083,3.427 -1.402,5.897 -3.972,7.456c-8.506,5.157 -16.343,11.216 -22.232,19.365c-4.031,5.579 -8.397,15.698 -7.45,22.781c1.101,8.228 6.887,17.811 10.701,25.089c-22.629,1.786 -45.323,0.046 -68,1.039c-22.052,0.966 -43.991,3.364 -66,4.872c-18.011,1.233 -36.004,1.539 -54,3.259c-33.378,3.189 -66.719,7.871 -100,12.014c-7.747,0.966 -15.113,3.656 -23,3.816c9.018,-8.751 23.598,-10.26 32.714,-19.289c5.474,-5.423 7.284,-12.238 11.7,-18.197c2.008,-2.708 5.005,-4.523 7.112,-7.183c7.988,-10.082 14.801,-21.167 22.81,-31.32c3.235,-4.102 7.507,-7.241 10.716,-11.27c7.231,-9.08 11.064,-20.76 18.48,-29.647c3.662,-4.387 9.327,-6.492 13.653,-10.144c9.183,-7.753 17.894,-16.204 27.05,-24.035c3.028,-2.589 6.673,-4.105 9.595,-6.883c4.027,-3.83 7.024,-8.732 11.354,-12.213c12.546,-10.085 28.382,-19.022 42.82,-26.008c6.887,-3.333 13.004,-9.058 20.996,-7.811m262,233.42c-7.324,0.97 -14.655,0.77 -22,1.85c-7.158,1.06 -13.911,3.29 -21,4.48c-7.143,1.21 -15.172,1.55 -21.985,4.07c-9.488,3.51 -16.492,12.97 -24.019,19.29c-14.329,12.04 -32.608,22.26 -42.528,38.93c-6.189,10.4 -8.347,22.67 -12.478,33.87c-2.621,7.1 -5.982,13.3 -6.816,21.09c-1.222,11.41 2.084,22.11 4.902,33c4.915,18.98 11.316,37.51 26.925,50.85c2.453,2.1 5.351,2.99 7.999,4.73c14.063,9.25 27.57,14.53 44,18.55c13.726,3.36 25.879,5.42 40,3.58c14.848,-1.93 29.5,-9.27 43,-15.46c7.991,-3.67 16.326,-6.63 23.996,-10.94c11.485,-6.45 21.871,-14.88 31.618,-23.64c2.52,-2.27 5.746,-3.71 8.026,-6.23c4.646,-5.12 7.924,-12.46 11.574,-18.35c2.908,-4.7 6.44,-8.87 8.416,-14.09c1.49,-3.95 1.84,-7.94 2.92,-11.96c2.22,-8.3 5.54,-16.36 6.35,-25.04c0.88,-9.54 -0.82,-18.6 -1.73,-28c-0.65,-6.74 -0.55,-13.13 -2.59,-19.71c-1.21,-3.93 -3.65,-6.87 -5.45,-10.46c-2.145,-4.29 -2.773,-8.66 -5.777,-12.66c-21.481,-28.61 -58.301,-42.35 -93.353,-37.75m-559,13c-10.024,1.34 -20.17,3.61 -30,6.06c-4.872,1.21 -10.006,3.55 -14.985,4.09c-4.027,0.43 -5.975,-2.75 -9.054,-4.68c-3.013,-1.89 -6.497,-2.07 -9.961,-1.8c-15.612,1.23 -27.248,15.37 -37.166,25.87c-3.628,3.85 -8.605,6.97 -11.691,11.25c-5.135,7.12 -8.131,15.71 -11.233,23.79c-4.013,10.46 -8.235,20.64 -8.867,32c-0.3,5.4 1.539,9.81 1.903,15.01c0.346,4.95 -0.565,10.11 0.51,14.99c0.919,4.17 3.189,7.31 4.915,11.09c5.466,11.98 11.676,23.41 20.633,33.23c4.98,5.46 9.818,11.66 15.996,15.83c19.952,13.47 47.888,15.44 71,12.57c8.394,-1.05 18.021,-2.21 26,-5.04c9.025,-3.21 17.341,-8.63 25.17,-14.06c23.313,-16.17 47.65,-39.18 52.39,-68.62c4.559,-28.31 0.599,-61.94 -20.248,-83.29c-8.407,-8.61 -18.703,-14.27 -29.312,-19.52c-11.04,-5.47 -23.451,-10.43 -36,-8.77m449,79.58c6.355,0.96 11.482,4.7 18,5c2.051,-13.15 8.15,-23.88 16.299,-34.09c5.1,-6.39 9.673,-11.49 17.701,-14.36c7.916,-2.83 18.646,-2.13 27,-2.55l0,-2l-4,0c-0.05,-4.21 -0.266,-6.71 -4,-9l0,-3c18.625,-4.43 38.071,-3.79 57,-5.09c22.101,-1.51 42.552,4.11 56.11,23.38c6.404,9.1 5.89,18.11 5.89,28.71c0,14.44 0.68,30.32 -5.376,43.83c-7.626,17.02 -20.156,33.21 -35.049,44.49c-6.415,4.85 -13.767,7.86 -20.486,12.15c-17.569,11.24 -38.198,21.3 -59.089,23.82c-23.039,2.76 -52.64,-0.75 -68.25,-19.46c-2.863,-3.43 -6.654,-6.48 -8.041,-10.84c-5.57,-17.55 -6.948,-36.09 -2.45,-53.99c1.202,-4.78 2.302,-10.42 4.069,-15c1.583,-4.1 4.602,-7.52 4.672,-12m-483,-43c14.702,-2.49 29.159,-6 43.961,-8.11c2.396,-0.35 4.684,-1.65 7.114,-1.65c3.32,-0.01 5.38,2.34 8.015,3.97c4.021,2.47 8.181,4.42 12.08,7.16c6.945,4.87 15.43,10.27 19.93,17.68c4.357,7.18 4.899,14.74 4.9,22.95c0.001,12.42 -0.784,26.25 -7.749,37c-4.999,7.72 -11.35,17.57 -18.626,23.26c-3.172,2.48 -7.324,3.39 -10.61,5.95c-6.76,5.26 -12.918,11.36 -20.3,15.81c-11.783,7.1 -24.302,9.52 -37.715,11.26c-20.461,2.66 -41.845,-0.06 -55.482,-17.28c-4.662,-5.89 -8.402,-12.01 -11.26,-18.91c-3.204,-7.74 -7.491,-17.56 -7.153,-26.09c0.566,-14.31 6.506,-28.9 11.816,-42c3.247,-8.01 8.392,-15.68 15.068,-21.19c2.003,-1.66 4.411,-4.18 7.181,-4.31c3.803,-0.17 7.233,3.12 10.83,4.03c5.294,1.33 10.697,-0.25 16,-0.49c2.48,-0.11 5.48,0.34 7.687,-1.06c2.458,-1.57 3.378,-5.39 4.313,-7.98m582,36.42c-9.171,1.2 -16.848,5.34 -18.67,15.58c-1.981,11.15 3.947,27.66 17.669,25.62c8.173,-1.22 9.754,-10.2 14.43,-15.48c3.434,-3.87 10.948,-4.1 12.948,-9.35c1.431,-3.75 -1.811,-6.6 -4.357,-8.77c-6.234,-5.32 -13.735,-8.67 -22.02,-7.6m-586,4.06c-5.584,0.67 -14.764,3.34 -17.682,8.58c-7.47,13.42 6.508,35.04 21.682,33.69c5.769,-0.51 12.908,-3.01 16.181,-8.05c9.566,-14.74 -2.398,-36.33 -20.181,-34.22z"/>
 </g>
</svg>