<?xml version="1.0" standalone="yes"?>
<svg xmlns="http://www.w3.org/2000/svg" width="1257" height="1279">
<path style="fill:#262629; stroke:none;" d="M715 358C709.253 359.969 708.016 368.659 706.704 374C703.85 385.615 696.034 394.565 696 407C686.652 407.407 677.186 410.697 668 412.459C664.142 413.199 658.982 415.221 655.314 412.821C651.552 410.359 651.399 402.975 650.501 399C647.774 386.927 644.312 375.259 642.711 363C641.649 354.873 638.459 347.128 637.3 339C636.007 329.932 636.897 320.208 634.54 311.289C629.728 293.08 612.523 280.382 596 273.337C573.96 263.94 548.246 264.505 526.039 272.757C521.727 274.359 518.236 277.537 513.925 279.18C489.111 288.639 465.771 299.705 444 314.971C433.818 322.11 423.314 328.631 413.039 335.626C407.744 339.23 403.187 343.989 397 346C394.958 353.492 386.147 356.151 381.459 361.989C373.382 372.049 364.835 382.247 356.138 391.83C349.8 398.815 341.329 407.157 337.712 416.089C331.134 432.334 339.002 446.113 356 449.622C367.287 451.952 378.831 453.375 390 456C390.01 459.468 390.103 462.677 391.233 465.996C399.805 491.165 430.793 486 452 486C462.033 486 472.021 484.015 482 484.079C486.05 484.106 489.201 486.382 493.09 486.87C498.674 487.572 504.406 486.501 510 487.129C515.453 487.741 520.822 489.634 526.17 490.755C537.358 493.102 548.358 495.039 557.911 501.845C567.024 508.337 577.729 518.416 583.508 528.015C585.929 532.035 586.781 536.844 589 541C569.277 541.847 549.881 552.739 531 558.091C519.391 561.382 507.386 563.831 496 567.749C490.943 569.49 486.176 572.196 481 573.625C452.305 581.548 423.443 589.168 394.999 598.039C380.64 602.517 367.868 611.801 353 615.447C336.024 619.61 330.727 601.892 318.961 593.965C314.444 590.922 304.438 586.924 299.147 590.028C293.495 593.343 292.467 605.261 290.532 610.961C287.404 620.175 282.723 629.072 278.908 638C276.507 643.62 274.952 648.741 271.241 653.831C259.713 669.641 241.171 681.24 224.91 691.692C219.982 694.86 215.258 698.956 209.996 701.508C207.018 702.952 202.687 703.86 201.121 707.133C199.754 709.992 201.559 713.396 202.735 716C208.498 728.76 225.006 725.752 237 726C234.387 735.619 243.848 742.093 247 750C238.499 754.396 242.397 763.138 248.34 768.571C253.838 773.598 262.91 774.787 270 773.791C281.324 772.199 291.439 766.041 302 762.246C312.734 758.388 324.501 758.034 334.91 752.715C342.553 748.811 349.182 741.611 355.996 736.438C361.347 732.376 367.366 729.661 373 726.061C389.352 715.613 405.884 706.046 422.576 696.291C443.959 683.796 464.736 670.997 488 662.194C505.744 655.479 522.438 645.948 540 638.71C549.116 634.953 558.851 632.952 568 629.406C582.506 623.783 596.896 616.626 612 612.765C620.668 610.548 629.657 607.855 637.985 604.572C641.087 603.349 645.223 599.716 648.7 600.966C652.293 602.258 653.917 607.06 656.325 609.711C660.635 614.456 665.715 618.176 668.612 624.089C670.447 627.837 670.831 632.002 671.899 635.985C672.806 639.37 675.705 643.169 674.043 646.703C672.494 649.996 668.789 651.454 666.011 653.454C662.501 655.982 659.165 659.171 656.207 662.325C651.834 666.987 647.782 672.137 642.871 676.269C631.63 685.728 618.784 692.692 608.133 703.004C605.001 706.037 604.268 710.305 601.236 713.495C594.225 720.873 585.17 726.713 577.184 732.899C574.714 734.813 572.988 737.409 570.621 739.406C557.146 750.775 542.238 760.896 528.039 771.424C517.85 778.98 509.732 788.977 499.59 796.769C481.324 810.802 462.331 823.572 443.996 837.475C438.586 841.578 434.327 846.959 428.957 850.958C418.993 858.376 407.807 864.469 399.104 873.439C395.75 876.896 394.112 881.512 390.655 884.946C386.731 888.845 381.348 890.852 377.184 894.554C364.255 906.052 351.826 919.065 336 926.566C323.944 932.279 309.615 928.948 297 933.089C274.478 940.484 247.181 952.616 233.688 973.015C229.56 979.255 223.149 985.872 220.725 993C219.217 997.433 220.324 1001.19 225 1002C227.113 1010.04 235.357 1015.75 243 1018L243 1020C231.582 1022.72 218.707 1024.27 207 1025.09C202.25 1025.42 196.865 1027.04 192.171 1025.49C187.833 1024.05 184.154 1019.07 180.985 1015.96C173.371 1008.5 165.937 1000.87 158.715 993.039C145.118 978.299 127.135 967.804 112.015 954.704C104.684 948.353 96.3521 942.415 89.4637 935.625C84.8867 931.113 81.4969 925.961 76 922.344C72.3945 919.972 62.4013 917.965 58.6073 921.028C55.1184 923.844 58.8323 931.154 60.5478 933.996C67.3545 945.275 76.0637 955.595 85.2816 964.949C104.651 984.604 128.375 999.801 148.829 1018.31C155.662 1024.49 162.917 1031.71 168.896 1038.71C172.497 1042.93 173.969 1048.04 179.17 1051.03C186.332 1055.14 201.019 1053.77 209 1052.82C251.282 1047.76 293.534 1040.21 336 1036.17C351.601 1034.68 367.366 1033.16 383 1032.09C396.942 1031.13 411.124 1031.72 425 1029.79C471.85 1023.28 518.839 1016.68 566 1012.17C584.26 1010.43 602.718 1011.17 621 1009.91C637.251 1008.79 653.694 1006.41 670 1006.01C693.987 1005.43 718.014 1006.57 742 1005.99C754.638 1005.68 767.362 1004.32 780 1004.01C801.248 1003.49 822.827 1004.64 844 1006.09C852.741 1006.69 861.273 1009.31 870 1009.91C887.581 1011.12 905.455 1009.47 923 1011.17C942.989 1013.1 962.861 1017.08 983 1017.96C991.294 1018.32 999.712 1017.32 1008 1016.96C1019.26 1016.47 1027.62 1013.19 1038.04 1009.45C1050.46 1004.99 1062.25 1000.21 1072.54 991.656C1079.82 985.597 1084.1 976.755 1091.51 970.978C1097.98 965.934 1105.55 962.658 1112.58 958.561C1126.79 950.271 1140.88 941.86 1156 935.216C1165.33 931.114 1180.37 925.408 1185.76 916.421C1188.32 912.146 1189.59 903.852 1185.49 900.105C1174.36 889.948 1162.81 894.005 1150.99 899.075C1131.85 907.28 1114.13 918.499 1095 927.156C1081.03 933.478 1068.13 943.839 1057.13 954.424C1049.58 961.702 1042.47 970.845 1032.71 975.329C1020.8 980.804 1007.08 986.835 994 988.7C967.717 992.446 940.077 986.651 914 984.17C895.47 982.406 876.599 982.468 858 981C862.573 976.657 870.555 976.051 874.196 970.461C880.932 960.12 881 946.821 881 935C881 915.051 878.904 893.816 881.129 874C883.474 853.109 892.472 833.189 901.845 814.714C906.48 805.579 911.633 796.065 918.455 788.325C925.38 780.468 935.725 772.587 946.089 770.221C952.284 768.807 958.976 769.919 964.985 767.941C968.343 766.836 970.766 764.233 974.039 763.028C979.065 761.178 984.152 761.828 989 759.045C994.943 755.632 1001.06 752.388 1006.95 748.901C1009.74 747.243 1011.88 744.517 1015.05 743.568C1030.55 738.943 1047.68 742.139 1062.83 735.215C1074.21 730.011 1086.06 725.121 1096.7 718.326C1114.4 707.023 1130.12 690.595 1144.34 675.421C1149.7 669.698 1156.79 664.786 1161.41 658.486C1169.17 647.893 1174.22 634.668 1180.04 623C1184.29 614.485 1190.08 606.738 1193.97 598C1200.29 583.806 1203.5 568.88 1207.84 554.039C1208.77 550.872 1210.81 548.231 1211.52 544.985C1212.71 539.499 1212.35 533.586 1213.29 528C1215.77 513.133 1219.69 497.086 1218.96 482C1218.48 472.065 1213.9 462.558 1212.04 452.961C1209.13 437.969 1208.98 422.57 1203.6 408C1200.43 399.389 1193.62 392.063 1189.38 384C1181.44 368.921 1173.81 353.911 1163.01 340.579C1159.58 336.338 1155.04 333.458 1150.92 329.961C1142.95 323.192 1135.51 316.88 1126 312.259C1119.29 309.002 1112.07 308.056 1105 305.958C1079.5 298.389 1053.11 296.54 1028 306.844C1015.98 311.776 1005.53 321.058 995.676 329.306C990.346 333.766 984.918 338.093 979.621 342.495C976.439 345.139 973.361 345.82 972 350C956.402 351.164 943.127 373.07 937.911 386C932.001 400.648 925.966 415.203 920.594 430C918.226 436.524 917.483 443.405 915.427 449.996C913.921 454.822 910.971 459.097 909.633 464C908.745 467.259 909.117 470.687 908.536 474C906.567 485.242 904 495.503 904 507L899 507C897.493 501.447 892.844 497.255 889.475 492.715C886.195 488.297 883.31 483.494 880.075 478.999C856.342 446.023 823.414 420.885 785 408C794.092 387.489 798.147 364.78 806.605 344C816.914 318.673 831.077 295.155 841.575 270C847.937 254.754 850.85 237.279 859.213 223C864.036 214.765 874.498 210.998 881.196 204.335C892.6 192.989 896.942 177.23 905.671 164.286C910.19 157.584 919.018 148.173 919.892 140C920.583 133.538 918.631 129.695 916.53 123.925C913.925 116.772 912.125 110.025 904.996 105.909C898.608 102.221 890.352 101.829 884.209 97.8643C880.536 95.4939 878.591 91.1049 874.996 88.51C871.119 85.7111 865.766 85.3674 862.589 81.5209C860.017 78.408 860.471 73.8826 858.969 70.2855C853.918 58.1869 851.424 44.2003 844.101 33.0895C842.734 31.0145 840.8 29.5001 838.996 27.8302C834.08 23.2784 821.765 9.53333 813.843 17.6034C811.567 19.9222 811.307 23.9697 810.951 27C810.261 32.8669 809.777 39.2717 808.402 45C806.501 52.9218 805.383 61.2181 802.974 69C801.073 75.1438 797.796 80.658 796.514 87C795.859 90.2421 796.371 93.6362 795.53 96.8302C794.349 101.319 791.903 105.513 790.63 110C789.653 113.443 789.979 117.47 788.181 120.656C785.861 124.767 779.094 124.477 775 125.576C765.136 128.222 754.915 129.462 745 132.116C740.019 133.45 733.576 135.169 730.989 140.185C727.973 146.033 731.743 155.483 735.449 160.076C741.907 168.081 748.443 176.063 753.454 185.004C755.19 188.101 757.791 191.143 757.611 194.911C757.17 204.148 752.147 212.966 750.375 222C744.938 249.724 738.454 277.903 730.251 305C724.94 322.544 717.221 339.768 715 358M832 64C834.926 70.6011 836.681 77.853 837.7 85C838.319 89.3483 837.551 93.803 839.144 98C842.241 106.156 849.217 108.399 854.671 114.144C860.539 120.325 860.525 130.745 871.015 132.282C874.723 132.825 879.139 131.035 883 131C883 133.991 886.334 133.79 889 134C887.811 140.565 883.023 144.427 879.789 150C872.764 162.103 867.068 173.187 857.474 183.678C850.061 191.785 840.891 196.523 834.9 206C828.991 215.349 826.293 227.598 822.759 238C818.659 250.071 813.195 262.47 807.788 274C804.399 281.227 799.904 287.906 796.272 295C793.313 300.781 791.493 306.912 788.79 312.711C786.28 318.096 782.353 322.492 780.174 328.17C777.143 336.065 773.758 344.787 771.583 353C770.26 357.995 769.866 363.08 768.161 367.996C764.275 379.207 756.56 390.958 756 403C745.243 403 734.701 403.155 724 404C725.597 395.53 729.174 388.961 732.059 380.999C736.487 368.785 740.491 356.283 744.644 344C748.263 333.298 752.289 322.601 755.509 311.83C757.242 306.033 757.837 299.807 759.623 294C762.101 285.939 765.224 278.315 767.112 270C770.423 255.414 772.469 240.624 775.371 226C777.289 216.337 782.197 206.694 783.363 197.004C784.195 190.095 777.193 187.687 773.284 183.62C769.152 179.323 766.695 172.989 763.114 168.17C761.136 165.508 756.853 162.014 757.817 158.225C758.952 153.763 768.25 152.309 772 151.615C780.18 150.101 788.779 148.169 797 147.184C802.793 146.491 808.385 147.91 812.686 142.891C817.798 136.926 815.797 128.02 817.414 121C818.125 117.915 819.63 115.142 820.231 112C821.183 107.016 820.897 101.912 822.301 97C823.783 91.816 826.648 87.2913 827.995 82C829.497 76.1057 829.346 69.5206 832 64M611 312C611.5 316.102 613.155 319.896 613.71 324C616.38 343.765 619.27 363.312 623.245 382.911C625.894 395.977 629 407.481 629 421C633.761 422.036 633.476 424.937 636.343 428.252C638.528 430.778 641.37 433.007 643.746 435.384C648.744 440.384 656.157 442.956 663 444.231C677.454 446.925 690.082 440.924 704 438.464C726.506 434.485 748.3 433.396 771 435.826C776.037 436.366 781.021 435.66 786 436.903C801.12 440.677 813.957 449.681 826.285 458.602C830.319 461.521 834.334 463.601 838.015 467.09C845.857 474.525 852.257 484.73 861 491C861.49 495.91 865.305 498.596 868.204 502.286C873.995 509.656 878.352 521.602 887 526C887.057 531.159 889.301 534.234 890.526 539.015C891.821 544.068 892.706 550.779 892.96 556C894.045 578.313 891.829 600.056 896.482 622C897.515 626.869 896.86 632.005 898.789 636.714C903.982 649.39 916.753 661.73 927.41 669.87C949.196 686.512 977.83 682.498 1003 679.286C1012.78 678.037 1024.43 677.715 1032.87 671.857C1039.88 666.992 1044.66 659.568 1049.86 653.089C1052.12 650.262 1055.11 648.22 1057.54 645.561C1064.61 637.812 1070.87 629.221 1078.42 621.846C1083.45 616.928 1089.04 612.097 1095.04 608.376C1098.81 606.035 1102.57 604.705 1105.88 601.611C1118.36 589.974 1125.63 575.901 1133.23 561.001C1139.28 549.17 1145.76 537.47 1147.7 524C1150.72 503.006 1150.12 476.7 1139.07 458.05C1136.58 453.849 1132.39 450.468 1129.01 447C1118.68 436.393 1106.82 428.686 1093 423.114C1083.89 419.443 1074.52 419.018 1065 417.197C1050.67 414.455 1034.37 412.945 1020 416.414C1016.44 417.274 1013.41 419.531 1010 420.812C1004.91 422.728 999.659 423.626 994.999 426.698C988.75 430.819 983.769 436.291 978.739 441.715C972.484 448.461 965.802 456.713 964 466L961 466C960.431 472.953 957.002 477.914 954.752 484.286C952.478 490.725 951.345 499.209 950.296 506C949.144 513.467 950.122 520.562 950.83 528C951.451 534.517 950.879 541.62 952.474 548C956.834 565.446 973.381 582.352 990 588.211C1002.64 592.668 1017.05 582.175 1030 586L1030 588C1018.93 593.148 1005.02 592.948 993 594.169C981.255 595.362 967.824 601.526 956 598.581C948.655 596.752 944.731 589.753 940.751 584.004C937.242 578.937 933.025 573.931 931.094 567.996C929.812 564.056 930.211 560.05 929.714 556C928.346 544.866 928.451 534.188 927.961 523C926.717 494.589 935.607 466.694 944.69 439.961C951.292 420.529 957.971 399.941 971.525 384.129C979.706 374.584 990.444 368.471 1000 360.564C1015.8 347.489 1032.85 334.39 1053 328.865C1074.95 322.848 1104.64 327.775 1125 337.289C1140.88 344.709 1153.41 358.162 1162.24 373C1166.65 380.423 1170.12 388.494 1175.14 395.579C1180.41 403.024 1185.62 412.968 1187.52 422.039C1189.02 429.211 1188.75 436.751 1190.36 444C1192.05 451.543 1193.42 459.418 1195.28 466.911C1195.91 469.41 1197.49 471.451 1197.86 474.039C1198.69 479.84 1197.41 486.217 1196.83 492C1195.01 510.221 1190.74 527.19 1186.59 545C1183.75 557.197 1180.99 569.476 1175.65 581C1172.82 587.096 1168.18 592.392 1164.58 598.039C1162.08 601.957 1160.66 606.249 1158.38 610.246C1155.85 614.669 1152.82 617.818 1152 623C1146.68 626.237 1144.58 634.833 1141.11 639.996C1138.09 644.488 1133.51 646.774 1129.82 650.616C1126.81 653.751 1125.52 657.224 1121 658L1121 661C1111.98 663.613 1106.96 673.681 1100.56 679.917C1090.88 689.348 1078.41 697.171 1066.71 703.83C1055.3 710.333 1040.72 714.862 1027.96 717.675C1018.79 719.696 1009.19 719.628 1000 721.513C986.757 724.229 974.358 731.364 961 733L962 740C942.136 739.147 923.066 735.161 903 736.039C887.242 736.729 873.152 741.47 858 745.101C837.379 750.043 816.662 754.499 797 762.827C786.08 767.452 774.089 769.169 763 773.403C754.904 776.494 747.176 779.921 744.144 789C742.024 795.347 742.353 804.411 743.185 811C743.886 816.552 746.818 823.651 748.684 829C758.325 856.635 784.681 876.431 808 892.166C820.03 900.283 829.446 908.807 838.789 919.975C842.788 924.756 847.648 929.756 848.737 936.17C849.731 942.02 845.608 946.416 845 952C838.664 951.978 824.04 945.879 823.318 957.036C823.193 958.967 823.76 961.088 824 963C813.343 963.841 802.679 965.426 792 965.896C785.448 966.184 778.628 965 772 965C761.942 965 751.671 966.018 742 963C742.018 956.303 742.532 949.521 747.519 944.482C749.785 942.192 752.806 941.159 755.254 939.14C758.22 936.695 760.346 933.635 764.089 932.249C775.41 928.059 789.122 928.937 801 928C801.082 921.014 806.134 914.953 800.15 908.839C791.571 900.075 777.954 903.46 768 897.531C761.135 893.442 753.459 889.457 747 884.791C737.557 877.969 729.28 869.837 720 862.846C711.809 856.676 702.805 851.977 695 845.289C688.682 839.876 681.928 836.046 676.015 830.001C673.461 827.391 670.133 824.54 669.279 820.83C667.621 813.638 666.601 802.489 668.459 795.286C669.874 789.801 673.53 787.132 676.931 783.026C681.735 777.227 685.621 770.204 692.015 765.854C695.34 763.591 699.417 762.678 703 760.89C712.64 756.082 722.263 751.5 732 746.919C749.348 738.757 764.134 726.134 781.004 717.171C797.732 708.282 817.897 702.247 836 696.961C844.502 694.478 852.292 690.641 861 688.474C868.847 686.52 878.741 685.904 885.83 681.84C894.373 676.944 893.283 669.382 886.945 663.055C882.969 659.086 876.712 656.389 871.004 657.652C867.49 658.43 864.513 660.621 860.961 661.37C852.476 663.16 844.014 663.904 836 667.59C815.751 676.905 793.533 681.784 773.089 690.605C754.551 698.603 738.067 711.529 721 721.971C711.847 727.571 711.704 711.873 702.989 710.363C697.174 709.355 694.511 714.563 689.714 716.412C682.485 719.199 674.119 717.159 667.113 722.005C661.126 726.146 666.83 728.11 668.396 732.263C669.377 734.867 668.232 737.765 666.852 739.985C663.705 745.047 658.719 747.915 654.166 751.454C647.252 756.829 640.663 762.559 633.871 768C617.702 780.954 598.776 788.642 581.17 799.106C559.493 811.988 541.004 829.173 521.714 845.294C511.741 853.629 500.539 860.758 491.595 870.261C486.435 875.743 483.935 881.669 480.179 887.996C477.157 893.088 473.185 897.848 469.7 902.625C466.331 907.243 461.274 910.629 457.725 915.169C448.912 926.442 440.63 937.989 431.579 949.089C426.636 955.152 423.918 963.799 417.945 968.785C412.307 973.491 405.663 975.652 399.004 978.323C388.944 982.359 379.576 986.16 369 989.029C344.78 995.599 322.37 1001.74 297 1002C287.41 1002.09 275.357 1002.36 266 1000.33C260.826 999.207 257.437 997.526 257 992L260 992C260.81 986.86 264.256 985.156 267.91 981.834C275.93 974.543 285.631 967.559 296 964.005C302.526 961.768 309.314 957.652 316.039 956.339C320.587 955.452 325.397 956.226 330 955.911C344.215 954.936 356.39 952.154 367.834 943.406C379.135 934.767 388.421 924.757 399.17 915.616C402.691 912.621 407.176 911.214 410.385 907.87C419.952 897.902 429.328 882.648 444 880C444.966 874.156 451.152 872.35 455.485 868.964C462.09 863.802 467.442 857.206 474.09 852.208C478.165 849.145 483.429 847.534 486 843C490.979 841.647 493.431 837.835 497.156 834.511C501.458 830.671 506.505 827.361 511.184 824.003C515.971 820.567 521.628 817.819 526.026 813.895C533.236 807.463 539.566 799.904 547.285 793.915C557.728 785.811 570.547 780.392 579.96 771C588.407 762.571 598.348 756.098 606.83 747.911C610.954 743.93 615.222 736.942 621 736C622.305 730.751 625.574 728.74 629.546 725.461C638.091 718.404 647.342 712.918 656.339 706.501C661.955 702.495 668.757 697.483 673.505 692.541C677.605 688.274 680.749 683.302 685.286 679.295C689.88 675.236 697.185 673.326 701.107 668.582C705.729 662.99 707.84 655.688 712 650C707.159 647.194 704.552 643.173 700.534 639.519C698.508 637.677 695.893 636.448 694.742 633.815C693.706 631.444 694.007 628.522 694 626L691 626C689.442 614.285 678.241 602.51 669 596L669 593C696.009 583.055 723.114 573.261 749.286 561.195C756.842 557.711 767.242 556.578 773.682 551.031C783.495 542.579 765.941 530.882 758.999 528.755C750.866 526.262 737.988 532.047 730.576 535.38C712.198 543.644 693.889 551.754 675 558.82C633.779 574.241 591.978 588.104 551 604.254C538.497 609.181 526.461 615.373 514 620.395C508.791 622.494 503.168 623.644 498 625.799C481.69 632.602 466.068 641.397 450 648.742C443.341 651.785 436.418 654.096 430.039 657.801C401.629 674.303 372 689.072 345.001 707.594C330.964 717.224 317.162 734.795 299 736C301.498 727.95 304.138 724.397 297 718C298.322 713.172 303.57 707.775 303.544 702.996C303.484 691.821 285.615 691 278 691C280.24 683.956 287.239 677.305 291.113 670.829C296.128 662.449 299.832 653.699 304.123 645C307.708 637.733 312.416 630.683 315 623C327.605 624.65 334.542 640.353 348 639.725C354.104 639.44 360.581 636.368 366.285 634.352C378.305 630.103 389.431 625.031 401 619.735C418.975 611.505 439.325 606.922 458 600.674C474.713 595.083 492.118 591.315 509 586.231C523.77 581.782 538.131 575.739 553 571.594C585.213 562.615 617.995 555.034 650 545.431C662.528 541.673 674.592 535.535 687 532C687.43 528.761 691.232 523.399 689.263 520.495C682.579 510.634 670.861 516.749 662.961 520.258C653.383 524.514 642.15 526.433 632 528.898C623.124 531.054 615.207 533.999 606 534C604.061 521.054 594.845 512.173 586 503.255C576.609 493.787 566.045 484.117 554 478.135C541.508 471.932 524.73 469.019 511 467C509.512 457.367 500.21 456.003 492 456C473.182 455.993 454.824 459 436 459C440.973 452.24 453.831 452.043 460.826 447.186C463.015 445.666 466.185 443.447 466.883 440.7C469.572 430.112 455.195 423.054 447 423.001C441.263 422.964 435.699 423.846 430 423.985C423.067 424.155 415.893 423.36 409 424.184C403.605 424.83 398.49 426.72 393 426.961C380.59 427.505 368.355 426 356 426C358.65 415.028 363.808 405.961 370.796 397.015C373.179 393.963 375.823 389.537 379.499 387.873C384.289 385.706 387.648 393.282 392.215 388.677C395.224 385.643 396.926 381.345 399.807 378.129C404.233 373.188 409.963 370.264 415.09 366.235C423.382 359.719 429.74 352.124 441 352C440.983 358.317 439.321 364.704 440.304 370.996C440.974 375.283 443.225 379.138 445.073 383.004C450.5 394.351 459.042 400.449 471 403.845C488.139 408.713 507.838 408.19 522.996 397.544C532.681 390.742 541.072 377.797 545.592 366.961C555.74 342.628 544.707 310.266 515 310L515 306C525.144 305.474 533.438 298.513 543 296.299C560.183 292.319 581.176 292.659 596.999 300.935C602.49 303.807 605.745 309.179 611 312M516 333.29C528.676 331.889 529.033 343.684 524.661 352.83C518.071 366.616 509.639 379.147 493 380.892C485.26 381.704 470.731 383.153 464.303 378.005C461.073 375.418 461.03 370.789 461.005 367C460.936 356.799 467.291 343.884 475.425 337.638C482.314 332.349 486.185 338.166 493.015 338.246C495.916 338.28 498.311 336.449 501 335.647C505.616 334.272 511.202 333.82 516 333.29M485 350C485.008 360.142 490.644 370.63 502 371C502.525 367.138 504.785 363.938 504.951 359.996C505.45 348.221 493.3 348.951 485 350M1122 524L1119 524C1118.58 530.309 1114.67 533.797 1111.59 539.004C1108.3 544.593 1106.53 550.954 1102.95 556.386C1099.11 562.211 1093.24 567.398 1091 574C1082.89 575.882 1075.58 581.565 1068 585C1069.94 575.27 1078.21 566.931 1083.37 558.714C1099.4 533.172 1114.48 502.406 1098.01 473.17C1095.05 467.919 1091.37 462.231 1087 458.09C1082.19 453.545 1076.2 450.102 1072 445C1086.4 445.658 1097.91 450.409 1109.83 458.189C1114.62 461.316 1120.25 464.788 1122.58 470.286C1126.45 479.434 1128.37 494.212 1126.67 504C1125.5 510.769 1122.88 517.074 1122 524M1080 506C1074.64 505.105 1075.36 501.509 1074.02 497C1072.51 491.897 1070.22 484.427 1066.53 480.518C1061.19 474.875 1051.16 474.145 1047 468C1052.92 468 1059.35 467.458 1064.99 469.664C1073.48 472.986 1081.88 483.945 1082.87 493.089C1083.38 497.865 1081.03 501.555 1080 506M1035 505C1033.21 511.425 1022.17 519.074 1015.47 514.971C1007.67 510.197 1005.78 497.599 1009 490C1014.04 491.655 1014.32 497.806 1018.73 500.852C1023.16 503.903 1029.87 503.557 1035 505M979 498C990.052 507.435 991.346 523.782 1000.29 534.961C1006.04 542.147 1014.36 542.005 1021.94 546.058C1025.6 548.013 1024.12 550.834 1023 554C1009.43 554 992.889 559.696 980.228 552.277C975.871 549.724 976.075 543.419 975.421 539C973.597 526.676 972.912 509.368 979 498M919 591C932.283 606.622 947.313 624.797 969 627.71C977.703 628.879 986.541 625.652 995 624.001C1002.32 622.571 1009.65 622.585 1017 621.714C1023.43 620.953 1029.51 619.022 1036 619C1034.81 623.238 1031.96 626.032 1029.43 629.572C1024.05 637.132 1017.36 644.177 1008.83 648.442C1003.32 651.199 996.024 651.566 990 652.169C982.248 652.945 974.816 654 967 654C957.429 654 947.55 654.919 939 649.717C933.174 646.172 925.286 638.274 922.513 632C920.197 626.759 920.149 620.57 919.246 615C918.092 607.882 916.136 597.826 919 591M897 763C893.747 769.677 886.769 774.856 882.424 781C876.707 789.086 872.509 798.279 867.918 807.015C865.928 810.801 863.125 814.133 861.27 817.996C850 841.473 850 868.568 850 894C841.681 892.679 834.148 884.746 827 880.316C806.15 867.396 783.117 854.156 774.319 830C771.419 822.036 768.523 810.186 773.938 802.468C779.96 793.884 795.694 791.705 805 788.819C827.948 781.701 850.639 773.552 874 767.961C881.612 766.14 889.116 763.168 897 763M639 799C639.017 805.261 638.853 814.321 641.974 819.911C645.815 826.79 654.237 832.666 659.754 838.299C679.083 858.038 702.824 871.524 724.015 888.964C728.128 892.349 732.661 895.829 737.039 898.86C739.15 900.322 742.562 901.02 743.953 903.309C746.036 906.736 742.551 909.206 739.981 910.765C731.475 915.922 723.638 921.981 717.749 930.13C713.718 935.709 709.352 945.828 710.299 952.911C711.4 961.139 717.186 970.722 721 978C698.371 979.786 675.677 978.046 653 979.039C630.948 980.005 609.009 982.403 587 983.911C568.989 985.144 550.996 985.45 533 987.17C499.622 990.359 466.281 995.041 433 999.184C425.253 1000.15 417.887 1002.84 410 1003C419.018 994.249 433.598 992.74 442.714 983.711C448.188 978.288 449.998 971.473 454.414 965.514C456.422 962.806 459.419 960.991 461.526 958.331C469.514 948.249 476.327 937.164 484.336 927.011C487.571 922.909 491.843 919.77 495.052 915.741C502.283 906.661 506.116 894.981 513.532 886.094C517.194 881.707 522.859 879.602 527.185 875.95C536.368 868.197 545.079 859.746 554.235 851.915C557.263 849.326 560.908 847.81 563.83 845.032C567.857 841.202 570.854 836.3 575.184 832.819C587.73 822.734 603.566 813.797 618.004 806.811C624.891 803.478 631.008 797.753 639 799M901 1032.42C893.676 1033.39 886.345 1033.19 879 1034.27C871.842 1035.33 865.089 1037.56 858 1038.75C850.857 1039.96 842.828 1040.3 836.015 1042.82C826.527 1046.33 819.523 1055.79 811.996 1062.11C797.667 1074.15 779.388 1084.37 769.468 1101.04C763.279 1111.44 761.121 1123.71 756.99 1134.91C754.369 1142.01 751.008 1148.21 750.174 1156C748.952 1167.41 752.258 1178.11 755.076 1189C759.991 1207.98 766.392 1226.51 782.001 1239.85C784.454 1241.95 787.352 1242.84 790 1244.58C804.063 1253.83 817.57 1259.11 834 1263.13C847.726 1266.49 859.879 1268.55 874 1266.71C888.848 1264.78 903.5 1257.44 917 1251.25C924.991 1247.58 933.326 1244.62 940.996 1240.31C952.481 1233.86 962.867 1225.43 972.614 1216.67C975.134 1214.4 978.36 1212.96 980.64 1210.44C985.286 1205.32 988.564 1197.98 992.214 1192.09C995.122 1187.39 998.654 1183.22 1000.63 1178C1002.12 1174.05 1002.47 1170.06 1003.55 1166.04C1005.77 1157.74 1009.09 1149.68 1009.9 1141C1010.78 1131.46 1009.08 1122.4 1008.17 1113C1007.52 1106.26 1007.62 1099.87 1005.58 1093.29C1004.37 1089.36 1001.93 1086.42 1000.13 1082.83C997.985 1078.54 997.357 1074.17 994.353 1070.17C972.872 1041.56 936.052 1027.82 901 1032.42M342 1045.42C331.976 1046.76 321.83 1049.03 312 1051.48C307.128 1052.69 301.994 1055.03 297.015 1055.57C292.988 1056 291.04 1052.82 287.961 1050.89C284.948 1049 281.464 1048.82 278 1049.09C262.388 1050.32 250.752 1064.46 240.834 1074.96C237.206 1078.81 232.229 1081.93 229.143 1086.21C224.008 1093.33 221.012 1101.92 217.91 1110C213.897 1120.46 209.675 1130.64 209.043 1142C208.743 1147.4 210.582 1151.81 210.946 1157.01C211.292 1161.96 210.381 1167.12 211.456 1172C212.375 1176.17 214.645 1179.31 216.371 1183.09C221.837 1195.07 228.047 1206.5 237.004 1216.32C241.984 1221.78 246.822 1227.98 253 1232.15C272.952 1245.62 300.888 1247.59 324 1244.72C332.394 1243.67 342.021 1242.51 350 1239.68C359.025 1236.47 367.341 1231.05 375.17 1225.62C398.483 1209.45 422.82 1186.44 427.56 1157C432.119 1128.69 428.159 1095.06 407.312 1073.71C398.905 1065.1 388.609 1059.44 378 1054.19C366.96 1048.72 354.549 1043.76 342 1045.42M791 1125C797.355 1125.96 802.482 1129.7 809 1130C811.051 1116.85 817.15 1106.12 825.299 1095.91C830.399 1089.52 834.972 1084.42 843 1081.55C850.916 1078.72 861.646 1079.42 870 1079L870 1077L866 1077C865.95 1072.79 865.734 1070.29 862 1068L862 1065C880.625 1060.57 900.071 1061.21 919 1059.91C941.101 1058.4 961.552 1064.02 975.11 1083.29C981.514 1092.39 981 1101.4 981 1112C981 1126.44 981.68 1142.32 975.624 1155.83C967.998 1172.85 955.468 1189.04 940.575 1200.32C934.16 1205.17 926.808 1208.18 920.089 1212.47C902.52 1223.71 881.891 1233.77 861 1236.29C837.961 1239.05 808.36 1235.54 792.75 1216.83C789.887 1213.4 786.096 1210.35 784.709 1205.99C779.139 1188.44 777.761 1169.9 782.259 1152C783.461 1147.22 784.561 1141.58 786.328 1137C787.911 1132.9 790.93 1129.48 791 1125M308 1082C322.702 1079.51 337.159 1076 351.961 1073.89C354.357 1073.54 356.645 1072.24 359.075 1072.24C362.395 1072.23 364.455 1074.58 367.09 1076.21C371.111 1078.68 375.271 1080.63 379.17 1083.37C386.115 1088.24 394.6 1093.64 399.1 1101.05C403.457 1108.23 403.999 1115.79 404 1124C404.001 1136.42 403.216 1150.25 396.251 1161C391.252 1168.72 384.901 1178.57 377.625 1184.26C374.453 1186.74 370.301 1187.65 367.015 1190.21C360.255 1195.47 354.097 1201.57 346.715 1206.02C334.932 1213.12 322.413 1215.54 309 1217.28C288.539 1219.94 267.155 1217.22 253.518 1200C248.856 1194.11 245.116 1187.99 242.258 1181.09C239.054 1173.35 234.767 1163.53 235.105 1155C235.671 1140.69 241.611 1126.1 246.921 1113C250.168 1104.99 255.313 1097.32 261.989 1091.81C263.992 1090.15 266.4 1087.63 269.17 1087.5C272.973 1087.33 276.403 1090.62 280 1091.53C285.294 1092.86 290.697 1091.28 296 1091.04C298.48 1090.93 301.48 1091.38 303.687 1089.98C306.145 1088.41 307.065 1084.59 308 1082M890 1118.42C880.829 1119.62 873.152 1123.76 871.33 1134C869.349 1145.15 875.277 1161.66 888.999 1159.62C897.172 1158.4 898.753 1149.42 903.429 1144.14C906.863 1140.27 914.377 1140.04 916.377 1134.79C917.808 1131.04 914.566 1128.19 912.02 1126.02C905.786 1120.7 898.285 1117.35 890 1118.42M304 1122.48C298.416 1123.15 289.236 1125.82 286.318 1131.06C278.848 1144.48 292.826 1166.1 308 1164.75C313.769 1164.24 320.908 1161.74 324.181 1156.7C333.747 1141.96 321.783 1120.37 304 1122.48z"/>
</svg>
